<?xml version="1.0" encoding="UTF-8"?>
<svg height="100%" width="100%" xmlns="http://www.w3.org/2000/svg">
	<defs>
		<font horiz-adv-x="700" id="web">
			<font-face alphabetic="0" ascent="756" descent="-244" font-family="" panose-1="2 11 9 3 2 2 2 2 2 4"/>
			<missing-glyph d="M0 718H512V0H0ZM50 667V50H462V667ZM259 609Q313 609 348 573T383 478Q383 444 370 418T320 358Q283 325 277 306T271 234H225L223 251Q223 307 236 332Q251 360 282 391Q313 420 322 437T332 474Q332 510 309 534T256 559Q223 559 201 536T174 464L124 472Q131 541 167 575T259 609ZM222 184H278V117H222Z" horiz-adv-x="512"/>
			<glyph d="" horiz-adv-x="250" unicode=" "/>
			<glyph d="M104 708H344V260H104ZM224 226Q258 226 286 209T331 165T348 105Q348 54 312 19T224 -16Q172 -16 136 19T100 105Q100 138 116 165T161 209T224 226Z" horiz-adv-x="448" unicode="!"/>
			<glyph d="M81 708H254V426H81ZM303 708H475V426H303Z" horiz-adv-x="556" unicode="&quot;"/>
			<glyph d="M194 708H340L313 521H354L381 708H526L499 521H575V387H480L471 321H548V187H453L426 0H281L307 187H267L240 0H95L121 187H45V321H140L150 387H73V521H168ZM294 387L285 321H326L336 387Z" horiz-adv-x="620" unicode="#"/>
			<glyph d="M299 786H401V714Q468 710 533 684T649 614L501 467Q478 495 443 510T379 526Q321 526 321 495Q321 481 334 473T391 452Q462 430 510 407T594 342T630 234Q630 163 597 110T509 27T390 -7V-83H288V-8Q219 -3 153 24T40 91L185 245Q211 217 253 197T337 178Q360 178 375 185T390 210Q390 223 380 232T345 250T265 277Q180 305 131 350T82 479Q82 578 144 637T299 712Z" unicode="$"/>
			<glyph d="M628 739L725 684L306 -37L208 16ZM224 720Q277 720 322 694T393 624T420 526Q420 473 393 429T322 359T224 333Q171 333 125 359T53 429T27 526Q27 579 53 623T125 694T224 720ZM224 586Q200 586 182 568T164 526Q164 502 182 485T224 468Q248 468 265 485T283 526Q283 551 265 568T224 586ZM711 375Q764 375 809 349T880 279T907 181Q907 128 880 84T809 14T711 -12Q658 -12 612 14T540 84T514 181Q514 234 540 278T612 349T711 375ZM711 241Q687 241 669 223T651 181Q651 157 669 140T711 123Q735 123 752 140T770 181Q770 206 752 223T711 241Z" horiz-adv-x="935" unicode="%"/>
			<glyph d="M364 728Q427 728 482 708T573 645T609 536Q609 476 573 433T472 357L521 311L576 390H825L655 183L847 0H569L520 51Q485 21 435 3T320 -14Q248 -14 184 9T80 81T40 205Q40 270 78 318T179 394Q148 421 129 458T110 539Q110 604 147 646T243 708T364 728ZM366 575Q345 575 332 561T320 529Q320 496 357 469Q381 478 395 494T410 529Q410 549 398 562T366 575ZM304 273Q288 267 276 253T265 218Q265 191 285 177T332 163Q350 163 367 169T392 184Z" horiz-adv-x="840" unicode="&amp;"/>
			<glyph d="M81 708H253V426H81Z" horiz-adv-x="334" unicode="'"/>
			<glyph d="M167 758L320 702Q187 518 187 288Q187 58 320 -126L167 -182Q94 -82 56 41T18 288Q18 412 56 535T167 758Z" horiz-adv-x="360" unicode="("/>
			<glyph d="M193 758Q266 658 304 535T342 288Q342 164 304 41T193 -182L40 -126Q173 58 173 288Q173 518 40 702Z" horiz-adv-x="360" unicode=")"/>
			<glyph d="M190 708H339V596L455 631L499 501L385 467L457 374L336 291L262 386L191 296L71 379L145 468L28 505L76 635L190 597Z" horiz-adv-x="527" unicode="*"/>
			<glyph d="M253 576H411V378H617V228H413V30H255V228H49V378H253Z" horiz-adv-x="666" unicode="+"/>
			<glyph d="M96 193H314L200 -120H14Z" horiz-adv-x="360" unicode=","/>
			<glyph d="M30 371H306V199H30Z" horiz-adv-x="336" unicode="-"/>
			<glyph d="M182 243Q216 243 246 225T294 178T312 113Q312 77 294 47T246 1T182 -16Q146 -16 115 1T66 47T48 113Q48 148 66 178T116 225T182 243Z" horiz-adv-x="360" unicode="."/>
			<glyph d="M300 767L458 719L154 -59L-3 -11Z" horiz-adv-x="455" unicode="/"/>
			<glyph d="M350 728Q470 728 541 672T640 533T668 358Q668 265 640 180T542 38T350 -20Q229 -20 158 38T59 181T32 358Q32 450 59 533T158 672T350 728ZM350 523Q312 523 295 475T278 358Q278 286 294 236T350 187Q390 187 406 236T422 358Q422 428 405 475T350 523Z" unicode="0"/>
			<glyph d="M308 708H528V0H288V456L169 374L57 548Z" unicode="1"/>
			<glyph d="M353 728Q428 728 492 704T597 628T638 497Q638 418 602 369T500 273L396 199H640V0H66V185L346 409Q385 439 385 471Q385 492 371 506T333 521Q304 521 285 498T264 436L37 462Q46 550 91 610T205 699T353 728Z" unicode="2"/>
			<glyph d="M360 728Q428 728 492 705T599 636T641 519Q641 462 611 425T533 375V371Q587 354 620 309T654 214Q654 135 611 82T501 5T358 -20Q241 -20 150 35T33 198L255 250Q261 222 285 201T345 180Q369 180 388 191T407 228Q407 258 381 269T304 280H236V444H312Q353 444 374 455T396 495Q396 516 379 526T340 536Q314 536 293 520T268 475L47 522Q82 629 167 678T360 728Z" unicode="3"/>
			<glyph d="M299 708H587V311H683V125H588V0H372V125H31V319ZM371 490L253 311H375V490Z" unicode="4"/>
			<glyph d="M127 708H608V510H328L324 459Q356 464 377 464Q453 464 515 439T613 364T650 238Q650 146 607 88T497 5T355 -20Q282 -20 214 6T100 81T41 198L261 254Q267 224 291 203T347 182Q375 182 394 195T413 236Q413 269 376 282T287 296Q254 296 200 290T102 275Z" unicode="5"/>
			<glyph d="M290 708H579L416 497L407 486H418Q480 486 536 458T626 376T660 250Q660 164 618 103T505 11T350 -20Q265 -20 194 10T82 100T40 248Q40 359 128 481ZM350 320Q318 320 297 299T277 249Q277 218 297 197T350 176Q383 176 404 197T425 249Q425 279 404 299T350 320Z" unicode="6"/>
			<glyph d="M81 708H645V539L392 0H116L385 510H81Z" unicode="7"/>
			<glyph d="M350 728Q424 728 488 705T592 636T632 519Q632 465 603 426T526 371V368Q578 349 611 305T644 204Q644 128 602 77T494 3T350 -20Q272 -20 205 3T97 76T56 203Q56 259 88 302T174 367V370Q128 387 98 427T68 519Q68 589 107 636T211 705T350 728ZM350 551Q324 551 308 535T292 499Q292 478 308 461T350 445Q376 445 392 461T408 499Q408 519 392 535T350 551ZM350 277Q321 277 304 260T288 218Q288 193 304 176T350 160Q379 160 395 176T412 218Q412 243 395 260T350 277Z" unicode="8"/>
			<glyph d="M350 728Q435 728 505 698T618 607T660 460Q660 349 572 227L410 0H121L288 216L293 222H282Q220 222 164 250T74 332T40 458Q40 544 82 605T194 697T350 728ZM350 534Q317 534 296 513T275 461Q275 431 296 410T350 390Q382 390 402 410T423 461Q423 492 402 513T350 534Z" unicode="9"/>
			<glyph d="M192 531Q224 531 252 514T297 470T314 409Q314 376 297 348T252 304T192 288Q140 288 103 323T66 409Q66 442 83 470T129 514T192 531ZM192 237Q224 237 252 220T297 176T314 115Q314 82 297 54T252 10T192 -6Q140 -6 103 29T66 115Q66 148 83 176T129 220T192 237Z" horiz-adv-x="380" unicode=":"/>
			<glyph d="M192 531Q224 531 252 514T297 470T314 409Q314 376 297 348T252 304T192 288Q140 288 103 323T66 409Q66 442 83 470T129 514T192 531ZM95 193H313L199 -120H13Z" horiz-adv-x="380" unicode=";"/>
			<glyph d="M588 572V410L314 299L588 196V32L78 235V369Z" horiz-adv-x="666" unicode="&lt;"/>
			<glyph d="M56 472H610V328H56ZM56 282H610V138H56Z" horiz-adv-x="666" unicode="="/>
			<glyph d="M78 572L588 369V235L78 32V196L352 299L78 410Z" horiz-adv-x="666" unicode="&gt;"/>
			<glyph d="M307 728Q375 728 436 707T537 639T577 518Q577 453 545 410T446 328Q410 306 410 278V252H197V289Q197 343 221 377T295 446L312 458T337 480T345 502Q345 522 333 531T303 540Q272 540 257 518T242 462L27 490Q39 611 117 669T307 728ZM304 226Q338 226 366 209T411 165T428 105Q428 54 392 19T304 -16Q252 -16 216 19T180 105Q180 138 196 165T241 209T304 226Z" horiz-adv-x="587" unicode="?"/>
			<glyph d="M414 726Q514 726 598 687T732 573T782 394Q782 287 725 223T567 160Q527 160 499 175T461 219H459Q447 196 416 178T346 160Q279 160 238 210T197 339Q197 397 220 448T285 530T383 562Q419 562 443 546T474 510H476L481 534H617L598 426Q580 338 580 313Q580 283 604 283Q626 283 644 309T662 396Q662 505 595 562T415 620Q339 620 279 585T186 490T153 354Q153 275 188 215T287 124T431 92Q488 92 542 110T636 160L711 75Q654 28 581 5T417 -18Q306 -18 216 29T76 161T25 353Q25 457 77 542T219 677T414 726ZM405 443Q381 443 363 412T345 343Q345 315 355 299T386 283Q413 283 429 313T446 380Q446 410 437 426T405 443Z" horiz-adv-x="800" unicode="@"/>
			<glyph d="M263 708H516L792 0H533L496 104H271L236 0H-16ZM386 461L328 286H443Z" horiz-adv-x="776" unicode="A"/>
			<glyph d="M66 708H357Q633 708 633 520Q633 465 605 427T529 371V368Q584 355 623 312T662 207Q662 99 583 49T387 0H66ZM288 523V436H352Q378 436 393 448T409 483Q409 503 392 513T347 523ZM288 283V187H359Q388 187 405 200T422 236Q422 261 399 272T349 283Z" horiz-adv-x="693" unicode="B"/>
			<glyph d="M419 728Q500 728 573 701T696 630L550 454Q531 480 500 493T433 507Q372 507 331 465T290 354Q290 309 309 275T361 222T433 203Q471 203 501 219T550 260L696 85Q647 36 576 8T419 -20Q312 -20 224 27T85 160T34 354Q34 465 85 550T224 681T419 728Z" horiz-adv-x="696" unicode="C"/>
			<glyph d="M66 708H330Q519 708 636 627T754 358Q754 239 698 158T551 39T350 0H66ZM295 506V204H339Q425 204 469 241T513 360Q513 428 468 467T348 506Z" horiz-adv-x="788" unicode="D"/>
			<glyph d="M66 708H553V510H290V449H537V264H290V198H570V0H66Z" horiz-adv-x="603" unicode="E"/>
			<glyph d="M66 708H544V509H299V434H515V240H300V0H66Z" horiz-adv-x="581" unicode="F"/>
			<glyph d="M418 728Q500 728 575 701T697 627L558 460Q511 517 432 517Q393 517 358 496T301 438T280 354Q280 276 320 231T442 187Q457 187 473 190T498 197V251H384V438H709V51Q658 21 580 1T426 -18Q315 -18 225 28T85 158T34 354Q34 465 85 550T223 681T418 728Z" horiz-adv-x="762" unicode="G"/>
			<glyph d="M66 708H303V468H497V708H736V0H498V269H304V0H66Z" horiz-adv-x="802" unicode="H"/>
			<glyph d="M66 708H306V0H66Z" horiz-adv-x="372" unicode="I"/>
			<glyph d="M271 708H510V262Q510 131 445 55T248 -20Q186 -20 130 3T37 68T-15 160L189 238Q193 221 204 209T232 197Q271 197 271 252Z" horiz-adv-x="573" unicode="J"/>
			<glyph d="M66 708H297V447H299L488 708H768L502 384L781 0H489L300 282H298V0H66Z" horiz-adv-x="763" unicode="K"/>
			<glyph d="M66 708H306V204H541V0H66Z" horiz-adv-x="549" unicode="L"/>
			<glyph d="M66 708H377L505 327H510L621 708H942V0H711L718 398L712 399L580 0H412L282 400H277L288 0H66Z" horiz-adv-x="1008" unicode="M"/>
			<glyph d="M66 708H303L505 349H509L499 708H725V0H482L286 338H282L292 0H66Z" horiz-adv-x="791" unicode="N"/>
			<glyph d="M427 728Q539 728 628 682T769 553T821 358Q821 247 769 161T628 27T427 -20Q316 -20 226 27T85 161T34 358Q34 469 85 553T225 682T427 728ZM427 510Q366 510 326 468T287 358Q287 289 326 244T427 200Q467 200 499 220T549 277T567 358Q567 426 527 468T427 510Z" horiz-adv-x="855" unicode="O"/>
			<glyph d="M66 708H370Q502 708 581 649T660 470Q660 387 619 332T513 253T370 228H303V0H66ZM303 523V409H353Q383 409 404 424T425 468Q425 523 353 523Z" horiz-adv-x="684" unicode="P"/>
			<glyph d="M427 728Q538 728 626 682T764 555T814 371Q814 314 791 261T740 184V180L852 187V0H414Q301 0 215 42T81 165T34 362Q34 469 85 552T226 681T427 728ZM427 510Q366 510 326 468T287 358Q287 289 326 244T427 200Q467 200 499 220T549 277T567 358Q567 426 527 468T427 510Z" horiz-adv-x="864" unicode="Q"/>
			<glyph d="M66 708H371Q503 708 580 651T657 478Q657 414 624 364T533 287L713 0H439L303 253H296V0H66ZM294 523V409H341Q374 409 399 421T424 468Q424 501 403 512T351 523Z" horiz-adv-x="714" unicode="R"/>
			<glyph d="M339 728Q410 728 482 700T609 623L461 472Q438 500 403 516T339 533Q281 533 281 501Q281 486 295 478T351 457Q422 434 470 411T554 344T590 233Q590 152 548 94T439 8T298 -20Q214 -20 134 9T0 87L145 245Q171 216 213 196T297 176Q320 176 335 184T350 209Q350 222 339 231T304 250T225 278Q140 306 91 353T42 485Q42 568 85 622T196 702T339 728Z" horiz-adv-x="617" unicode="S"/>
			<glyph d="M7 708H593V507H419V0H181V507H7Z" horiz-adv-x="600" unicode="T"/>
			<glyph d="M56 708H294V304Q294 253 318 224T388 196Q433 196 457 224T482 304V708H719V278Q719 193 680 125T566 19T384 -20Q277 -20 203 18T92 124T56 278Z" horiz-adv-x="775" unicode="U"/>
			<glyph d="M-16 708H253L370 270H374L486 708H755L499 0H235Z" horiz-adv-x="739" unicode="V"/>
			<glyph d="M0 708H252L328 310H332L414 708H663L752 310H756L833 708H1077L880 0H640L540 400H536L433 0H193Z" horiz-adv-x="1077" unicode="W"/>
			<glyph d="M1 708H288L400 522L507 708H787L551 372L812 0H521L393 207L270 0H-12L241 369Z" horiz-adv-x="800" unicode="X"/>
			<glyph d="M-24 708H263L375 500L482 708H762L481 290V0H243V290Z" horiz-adv-x="738" unicode="Y"/>
			<glyph d="M55 708H620V536L338 203H628V0H44V199L309 511H55Z" horiz-adv-x="672" unicode="Z"/>
			<glyph d="M42 732H294V595H207V-19H294V-156H42Z" horiz-adv-x="360" unicode="["/>
			<glyph d="M155 767L458 -11L301 -59L-3 719Z" horiz-adv-x="455" unicode="\"/>
			<glyph d="M66 732H318V-156H66V-19H153V595H66Z" horiz-adv-x="360" unicode="]"/>
			<glyph d="M280 708H434Q454 672 479 626T535 526Q601 404 635 343H457L356 530L255 343H77Z" horiz-adv-x="714" unicode="^"/>
			<glyph d="M0 -75H500V-185H0Z" horiz-adv-x="500" unicode="_"/>
			<glyph d="M296 546Q426 546 487 478T549 277V0H340V42H338Q320 14 283 0T209 -14Q164 -14 122 3T53 58T26 155Q26 244 105 288T332 332V334Q332 357 316 369T272 381Q243 381 214 368T161 336L46 450Q93 495 159 520T296 546ZM334 218Q279 218 250 206T221 166Q221 146 238 135T274 125Q307 125 327 146T347 200V218Z" horiz-adv-x="591" unicode="a"/>
			<glyph d="M53 756H283V484H285Q308 510 345 525T422 540Q497 540 551 500T634 398T662 265Q662 193 634 129T551 25T422 -14Q373 -14 328 5T262 55H260V0H53ZM362 352Q323 352 297 326T272 265Q272 227 297 201T362 176Q402 176 425 201T448 265Q448 301 425 326T362 352Z" horiz-adv-x="694" unicode="b"/>
			<glyph d="M342 546Q395 546 448 529T533 489L418 323Q406 337 387 344T349 352Q313 352 286 328T259 263Q259 221 286 198T349 176Q369 176 388 183T419 204L535 42Q501 15 448 -2T339 -20Q250 -20 180 15T71 114T32 263Q32 347 72 411T183 510T342 546Z" horiz-adv-x="526" unicode="c"/>
			<glyph d="M411 756H641V0H434V55H432Q410 24 365 5T272 -14Q197 -14 142 25T60 129T32 265Q32 335 60 398T142 500T272 540Q311 540 348 525T409 484H411ZM332 352Q292 352 269 326T246 265Q246 226 269 201T332 176Q372 176 397 201T422 265Q422 301 396 326T332 352Z" horiz-adv-x="694" unicode="d"/>
			<glyph d="M325 546Q406 546 469 509T567 406T602 258Q602 233 600 209H246Q249 182 276 165T336 149Q365 149 387 160T422 186L586 103Q551 46 484 13T330 -20Q251 -20 183 13T73 110T32 263Q32 348 71 412T177 511T325 546ZM327 397Q292 397 269 377T244 333H403Q403 361 382 379T327 397Z" horiz-adv-x="630" unicode="e"/>
			<glyph d="M336 786Q363 786 392 782T441 771L426 598Q404 607 381 607Q349 607 334 587T320 533V526H431V361H320V0H90V361H0V526H90V538Q90 660 151 723T336 786Z" horiz-adv-x="424" unicode="f"/>
			<glyph d="M272 540Q316 540 356 523T421 473H424V526H641V54Q641 -95 553 -167T313 -240Q236 -240 161 -220T32 -163L133 -10Q169 -38 211 -52T293 -66Q346 -66 381 -39T417 33V56H414Q394 32 355 16T272 0Q194 0 140 35T59 131T32 265Q32 335 60 398T142 500T272 540ZM332 352Q292 352 269 326T246 265Q246 226 269 201T332 176Q372 176 397 201T422 265Q422 301 396 326T332 352Z" horiz-adv-x="697" unicode="g"/>
			<glyph d="M53 756H284V468H286Q307 499 345 519T430 540Q521 540 569 481T618 320V0H386V280Q386 319 374 335T336 352Q314 352 299 333T284 279V0H53Z" horiz-adv-x="666" unicode="h"/>
			<glyph d="M171 796Q202 796 229 780T272 736T289 678Q289 629 254 595T171 561Q121 561 85 595T50 678Q50 709 66 736T111 780T171 796ZM54 526H285V0H54Z" horiz-adv-x="339" unicode="i"/>
			<glyph d="M177 796Q208 796 235 780T279 736T296 678Q296 629 261 595T177 561Q128 561 92 595T57 678Q57 709 73 736T117 780T177 796ZM61 526H292V12Q292 -240 55 -240Q33 -240 5 -237T-41 -228L-29 -40Q-11 -45 8 -45Q35 -45 48 -30T61 19Z" horiz-adv-x="346" unicode="j"/>
			<glyph d="M53 756H284V325H287L412 526H680L510 289L679 0H410L287 229H284V0H53Z" horiz-adv-x="670" unicode="k"/>
			<glyph d="M53 756H289V0H53Z" horiz-adv-x="342" unicode="l"/>
			<glyph d="M429 540Q537 540 579 464Q639 540 739 540Q809 540 851 505T910 421T928 320V0H697V280Q697 321 687 336T654 352Q633 352 619 333T606 279V0H375V276Q375 316 365 334T332 352Q313 352 298 334T284 279V0H53V526H278V468H280Q303 498 341 519T429 540Z" horiz-adv-x="976" unicode="m"/>
			<glyph d="M430 540Q521 540 569 482T618 320V0H386V280Q386 319 374 335T336 352Q313 352 298 333T284 280V0H53V526H278V468H280Q301 499 341 519T430 540Z" horiz-adv-x="666" unicode="n"/>
			<glyph d="M331 546Q412 546 481 512T591 415T632 265Q632 177 591 112T481 14T331 -20Q251 -20 182 14T73 112T32 265Q32 352 73 415T182 512T331 546ZM331 352Q294 352 270 326T246 265Q246 228 270 202T332 176Q369 176 393 202T418 265Q418 300 393 326T331 352Z" horiz-adv-x="664" unicode="o"/>
			<glyph d="M422 540Q497 540 551 500T634 398T662 265Q662 193 634 129T552 25T423 -14Q383 -14 345 0T284 41H282V-240H53V526H270V473H272Q300 505 341 522T422 540ZM362 352Q323 352 297 326T272 265Q272 227 297 201T362 176Q402 176 425 201T448 265Q448 301 425 326T362 352Z" horiz-adv-x="694" unicode="p"/>
			<glyph d="M272 540Q312 540 353 522T422 473H424V526H641V-240H412V41H410Q386 15 348 0T271 -14Q196 -14 142 25T60 129T32 265Q32 335 60 398T142 500T272 540ZM332 352Q292 352 269 326T246 265Q246 226 269 201T332 176Q372 176 397 201T422 265Q422 301 396 326T332 352Z" horiz-adv-x="694" unicode="q"/>
			<glyph d="M406 540Q433 540 450 535L432 339Q411 345 383 345Q339 345 311 319T284 255V0H53V526H275V466H277Q295 499 329 519T406 540Z" horiz-adv-x="445" unicode="r"/>
			<glyph d="M269 546Q330 546 390 528T498 478L390 349Q337 383 288 383Q249 383 249 361Q249 351 262 345T319 331Q392 316 438 275T484 167Q484 101 448 59T359 -1T251 -20Q183 -20 117 0T4 55L117 186Q141 164 173 150T236 137Q250 137 259 142T269 158Q269 170 251 178T186 197Q121 211 79 252T38 357Q38 421 74 463T163 526T269 546Z" horiz-adv-x="513" unicode="s"/>
			<glyph d="M73 644H297V526H411V361H297V221Q297 185 312 170T359 156Q383 156 401 162V4Q382 -4 349 -9T282 -14Q177 -14 125 32T74 173V361H0V526H73Z" horiz-adv-x="421" unicode="t"/>
			<glyph d="M45 526H277V248Q277 209 289 192T327 176Q350 176 364 195T379 248V526H610V0H385V58H383Q362 27 321 6T233 -14Q132 -14 88 50T45 206Z" horiz-adv-x="663" unicode="u"/>
			<glyph d="M-8 526H248L323 242H327L399 526H646L443 0H192Z" horiz-adv-x="638" unicode="v"/>
			<glyph d="M-5 526H242L308 254H312L380 526H602L675 254H678L742 526H978L796 0H566L485 270H483L404 0H175Z" horiz-adv-x="973" unicode="w"/>
			<glyph d="M6 526H268L344 416L419 526H673L484 270L683 0H419L338 119L252 0H-8L195 270Z" horiz-adv-x="675" unicode="x"/>
			<glyph d="M-8 526H248L326 249H330L399 526H646L430 -32Q389 -137 326 -188T154 -240Q121 -240 83 -235T23 -224L52 -34Q66 -39 84 -42T117 -46Q153 -46 172 -32T201 9L205 20Z" horiz-adv-x="638" unicode="y"/>
			<glyph d="M38 526H517V376L304 171H523V0H33V161L230 355H38Z" horiz-adv-x="557" unicode="z"/>
			<glyph d="M214 732H310V595H276Q249 595 237 577T226 535V400Q226 348 199 320T141 289V287Q172 283 199 255T226 176V41Q226 16 237 -1T276 -19H310V-156H214Q139 -156 102 -107T65 15V147Q65 187 49 202T0 217V359Q33 359 49 374T65 429V561Q65 635 102 683T214 732Z" horiz-adv-x="360" unicode="{"/>
			<glyph d="M49 750H221V-250H49Z" horiz-adv-x="269" unicode="|"/>
			<glyph d="M50 732H146Q221 732 258 683T295 561V429Q295 389 311 374T360 359V217Q327 217 311 202T295 147V15Q295 -59 258 -107T146 -156H50V-19H84Q111 -19 122 -1T134 41V176Q134 228 161 255T219 287V289Q188 293 161 320T134 400V535Q134 560 122 577T84 595H50Z" horiz-adv-x="360" unicode="}"/>
			<glyph d="" horiz-adv-x="250" unicode=" "/>
			<glyph d="M341 602H450V541Q493 537 533 522T599 489L484 323Q472 337 453 344T415 352Q379 352 352 328T325 263Q325 221 352 198T415 176Q435 176 454 183T485 204L601 42Q574 20 534 4T450 -15V-72H341V-13Q269 -2 214 34T128 130T98 263Q98 336 128 394T214 489T341 538Z" unicode="¢"/>
			<glyph d="M455 728Q531 728 590 706T687 647L553 495Q541 509 521 517T481 526Q401 526 401 451V442H546V280H401V193H652V0H80V193H172V280H80V442H172V470Q172 535 204 594T301 690T455 728Z" unicode="£"/>
			<glyph d="M330 727Q426 727 496 693T601 597L435 487Q420 512 394 527T344 543Q326 543 313 537T301 520Q301 508 319 499T399 472Q504 440 554 397T604 278Q604 240 587 209T539 158Q561 143 572 115T584 56Q584 -20 541 -67T434 -134T301 -154Q215 -154 134 -118T10 -21L167 109Q194 69 234 50T312 31Q327 31 338 37T350 52Q350 63 342 70T313 84T249 105Q174 127 129 149T62 206T39 292Q39 374 110 420Q69 458 69 530Q69 598 110 642T211 706T330 727ZM250 345Q243 341 238 333T234 317Q234 298 250 288T312 263L393 235Q406 243 406 261Q406 278 387 290T332 316Z" horiz-adv-x="650" unicode="§"/>
			<glyph d="M401 730Q504 730 591 679T729 542T780 353Q780 250 729 164T591 28T401 -22Q298 -22 210 28T71 164T20 353Q20 456 71 542T210 679T401 730ZM401 674Q314 674 240 631T123 514T80 353Q80 266 122 193T237 77T397 34Q484 34 558 77T676 193T720 353Q720 440 677 514T561 631T401 674ZM421 591Q473 591 520 571T596 515L498 435Q472 471 417 471Q372 471 345 436T319 354Q319 307 346 271T423 236Q476 236 503 269L595 181Q563 149 517 131T421 114Q352 114 295 142T206 225T173 353Q173 424 206 478T296 561T421 591Z" horiz-adv-x="800" unicode="©"/>
			<glyph d="M301 719Q363 719 415 688T497 606T528 492Q528 430 497 378T415 297T301 267Q239 267 186 297T103 378T72 492Q72 554 103 606T186 688T301 719ZM301 684Q248 684 204 658T134 588T108 492Q108 440 134 396T204 326T301 300Q353 300 397 326T466 396T492 492Q492 544 466 588T397 658T301 684ZM191 631H305Q355 631 390 611T426 545Q426 519 413 499T378 471L439 365H339L295 459H279V365H191ZM279 562V521H305Q317 521 325 527T333 544Q333 552 324 557T305 562Z" horiz-adv-x="600" unicode="®"/>
			<glyph d="M220 733Q271 733 312 710T376 646T399 554Q399 503 376 462T312 398T220 375Q169 375 128 398T64 462T41 554Q41 605 64 646T128 710T220 733ZM220 651Q180 651 151 623T123 554Q123 514 151 485T220 457Q261 457 289 485T317 554Q317 595 289 623T220 651Z" horiz-adv-x="440" unicode="°"/>
			<glyph d="M273 708H587V-133H432V566H380V-133H226V330Q126 335 69 383T13 515Q13 616 79 662T273 708Z" horiz-adv-x="646" unicode="¶"/>
			<glyph d="M182 419Q216 419 246 401T294 354T312 289Q312 253 294 223T246 177T182 160Q146 160 115 177T66 223T48 289Q48 324 66 354T115 401T182 419Z" horiz-adv-x="360" unicode="·"/>
			<glyph d="M30 345H370V225H30Z" horiz-adv-x="400" unicode="–"/>
			<glyph d="M30 345H570V225H30Z" horiz-adv-x="600" unicode="—"/>
			<glyph d="M141 708H305L231 426H42Z" horiz-adv-x="342" unicode="‘"/>
			<glyph d="M111 708H300L201 426H37Z" horiz-adv-x="342" unicode="’"/>
			<glyph d="M141 708H305L226 426H42ZM367 708H531L457 426H273Z" horiz-adv-x="568" unicode="“"/>
			<glyph d="M111 708H295L201 426H37ZM342 708H526L427 426H263Z" horiz-adv-x="568" unicode="”"/>
			<glyph d="M214 708H398V511H585V341H399V-133H215V341H34V511H214Z" horiz-adv-x="619" unicode="†"/>
			<glyph d="M217 708H400V539H585V375H400V200H585V36H401V-133H218V36H34V200H218V375H34V539H217Z" horiz-adv-x="619" unicode="‡"/>
			<glyph d="M250 531Q298 531 338 507T403 442T427 354Q427 306 403 265T338 201T250 177Q202 177 161 201T97 265T73 354Q73 402 97 442T161 507T250 531Z" horiz-adv-x="500" unicode="•"/>
			<glyph d="M168 243Q202 243 232 225T280 178T298 113Q298 77 280 47T232 1T168 -16Q132 -16 101 1T52 47T34 113Q34 148 52 178T101 225T168 243ZM500 243Q534 243 564 225T612 178T630 113Q630 77 612 47T564 1T500 -16Q464 -16 433 1T384 47T366 113Q366 148 384 178T433 225T500 243ZM833 243Q867 243 897 225T945 178T963 113Q963 77 945 47T897 1T833 -16Q797 -16 766 1T717 47T699 113Q699 148 717 178T766 225T833 243Z" horiz-adv-x="1000" unicode="…"/>
			<glyph d="M496 728Q535 728 584 721T663 704L597 537Q576 544 546 549T491 554Q453 554 419 541T371 507H603L557 376H330Q329 367 329 357Q329 344 330 335H547L504 206H359Q371 185 406 172T481 159Q516 159 549 166T603 186L633 13Q605 -2 559 -11T458 -20Q336 -20 250 40T135 206H30L72 335H119Q118 344 118 357Q118 367 119 376H32L79 507H137Q174 614 270 671T496 728Z" unicode="€"/>
			<glyph d="M40 708H386V605H274V296H152V605H40ZM446 708H610L699 460L782 708H945V296H833V541H831L739 296H648L559 541H557V296H446Z" horiz-adv-x="1000" unicode="™"/>
			<glyph d="M240 747H378L568 356L378 -35H238L53 356Q95 442 240 747ZM308 553L224 356L308 160Q316 178 395 356Z" horiz-adv-x="619" unicode="◊"/>
			<glyph d="M588 796Q619 796 646 780T689 736T706 678Q706 629 671 595T588 561Q538 561 502 595T467 678Q467 709 483 736T528 780T588 796ZM336 786Q363 786 392 782T441 771L426 598Q404 607 381 607Q349 607 334 587T320 533V526H431V361H320V0H90V361H0V526H90V538Q90 660 151 723T336 786ZM471 526H702V0H471Z" horiz-adv-x="756" unicode="ﬁ"/>
			<glyph d="M470 756H706V0H470ZM336 786Q363 786 392 782T441 771L426 598Q404 607 381 607Q349 607 334 587T320 533V526H431V361H320V0H90V361H0V526H90V538Q90 660 151 723T336 786Z" horiz-adv-x="759" unicode="ﬂ"/>
		</font>
</defs>
</svg>
