<?xml version="1.0" encoding="UTF-8"?>
<svg height="100%" width="100%" xmlns="http://www.w3.org/2000/svg">
	<defs>
		<font horiz-adv-x="695" id="web">
			<font-face alphabetic="0" ascent="756" descent="-244" font-family="" panose-1="2 11 9 3 2 2 2 9 2 4"/>
			<missing-glyph d="M0 718H512V0H0ZM50 667V50H462V667ZM259 609Q313 609 348 573T383 478Q383 444 370 418T320 358Q283 325 277 306T271 234H225L223 251Q223 307 236 332Q251 360 282 391Q313 420 322 437T332 474Q332 510 309 534T256 559Q223 559 201 536T174 464L124 472Q131 541 167 575T259 609ZM222 184H278V117H222Z" horiz-adv-x="512"/>
			<glyph d="" horiz-adv-x="250" unicode=" "/>
			<glyph d="M168 708H401L321 258H88ZM196 223Q246 223 278 193T311 121Q311 65 274 26T179 -13Q127 -13 95 17T63 89Q63 145 100 184T196 223Z" horiz-adv-x="439" unicode="!"/>
			<glyph d="M143 708H312L262 427H93ZM362 708H530L480 427H313Z" horiz-adv-x="550" unicode="&quot;"/>
			<glyph d="M260 708H402L342 520H387L447 708H588L528 520H605L582 389H487L464 319H542L519 188H424L363 0H222L281 188H237L177 0H36L95 188H18L41 319H136L160 389H82L105 520H200ZM300 389L278 319H323L346 389Z" horiz-adv-x="618" unicode="#"/>
			<glyph d="M354 786H457L443 716Q504 712 559 689T647 634L502 494Q465 538 398 538Q369 538 347 526T326 491Q326 473 343 461T400 438Q494 407 542 359T590 235Q590 162 553 109T456 28T331 -6L317 -83H215L229 -7Q160 -2 95 23T-10 89L145 232Q167 206 206 189T279 173Q313 173 333 184T354 217Q354 235 336 248T273 277Q186 305 140 347T95 469Q95 532 126 585T212 672T340 716Z" unicode="$"/>
			<glyph d="M695 739L782 683L235 -39L149 19ZM265 720Q347 720 398 677T449 558Q449 499 421 450T344 372T234 344Q153 344 102 386T52 505Q52 565 79 614T154 691T265 720ZM258 596Q229 596 210 573T192 519Q192 496 205 482T242 468Q272 468 290 490T309 546Q309 568 295 582T258 596ZM708 365Q790 365 841 322T892 203Q892 144 864 95T788 17T677 -11Q596 -11 545 31T495 150Q495 210 522 259T597 336T708 365ZM701 241Q672 241 653 218T635 164Q635 141 648 127T685 113Q715 113 733 135T752 191Q752 213 738 227T701 241Z" horiz-adv-x="915" unicode="%"/>
			<glyph d="M398 728Q501 728 563 681T626 546Q626 478 583 431T460 354L501 308L563 387H807L626 182L784 0H508L470 47Q383 -15 275 -15Q161 -15 85 33T10 184Q10 259 57 313T193 399Q168 426 157 458T146 522Q146 577 178 624T267 699T398 728ZM394 580Q370 580 354 564T339 525Q339 508 347 491T368 463Q400 474 420 493T440 535Q440 556 428 568T394 580ZM285 276Q260 268 243 251T227 207Q227 183 245 168T289 154Q334 154 361 181Z" horiz-adv-x="834" unicode="&amp;"/>
			<glyph d="M142 708H310L260 427H93Z" horiz-adv-x="330" unicode="'"/>
			<glyph d="M239 756L374 685Q269 566 213 432T158 163Q158 87 177 7T233 -134L83 -180Q41 -110 18 -18T-4 163Q-4 326 61 481T239 756Z" horiz-adv-x="360" unicode="("/>
			<glyph d="M253 756Q295 686 317 594T340 413Q340 250 274 94T97 -180L-38 -109Q67 10 122 144T178 413Q178 489 158 568T103 710Z" horiz-adv-x="360" unicode=")"/>
			<glyph d="M229 708H378V596L494 631L538 501L424 467L496 374L375 291L301 386L230 296L110 379L184 468L67 505L115 635L229 597Z" horiz-adv-x="523" unicode="*"/>
			<glyph d="M253 576H411V378H617V228H413V30H255V228H49V378H253Z" horiz-adv-x="666" unicode="+"/>
			<glyph d="M70 190H282L114 -120H-66Z" horiz-adv-x="354" unicode=","/>
			<glyph d="M36 367H309L279 199H6Z" horiz-adv-x="335" unicode="-"/>
			<glyph d="M150 234Q202 234 236 202T270 128Q270 69 231 28T132 -12Q78 -12 44 19T11 94Q11 153 50 193T150 234Z" horiz-adv-x="354" unicode="."/>
			<glyph d="M375 766L521 719L79 -58L-65 -11Z" horiz-adv-x="451" unicode="/"/>
			<glyph d="M398 726Q498 726 561 687T653 586T681 454Q681 344 643 235T523 54T314 -18Q213 -18 148 21T55 121T27 254Q27 364 65 472T186 653T398 726ZM379 534Q342 534 314 494T271 396T256 283Q256 237 273 207T324 178Q360 178 387 216T430 312T445 429Q445 476 429 505T379 534Z" unicode="0"/>
			<glyph d="M372 708H585L460 0H227L309 465L175 393L107 568Z" unicode="1"/>
			<glyph d="M386 728Q457 728 519 705T621 635T660 516Q660 455 636 411T579 339T492 275L371 194H623L589 0H6L39 183L361 409Q417 449 417 478Q417 500 404 513T364 527Q331 527 308 504T277 443L64 474Q91 591 176 659T386 728Z" unicode="2"/>
			<glyph d="M391 728Q516 728 589 676T662 529Q662 488 641 455T590 402T528 375L527 371Q574 354 600 316T626 227Q626 145 580 89T463 6T316 -20Q198 -20 115 34T11 195L223 246Q232 212 257 193T320 174Q348 174 370 187T393 226Q393 259 367 271T291 283H225L252 441H328Q372 441 401 454T431 497Q431 541 375 541Q346 541 322 526T289 486L86 540Q123 633 205 680T391 728Z" unicode="3"/>
			<glyph d="M357 708H645L574 307H675L643 126H546L524 0H314L336 126H1L35 315ZM396 495L243 307H367L400 495Z" unicode="4"/>
			<glyph d="M190 708H667L633 515H352L338 458Q365 463 392 463Q492 463 559 414T627 255Q627 164 581 102T466 10T322 -20Q204 -20 123 35T15 191L230 249Q238 216 263 196T322 176Q350 176 372 190T394 236Q394 272 366 286T287 300Q247 300 193 293T90 278Z" unicode="5"/>
			<glyph d="M344 708H645L438 496L422 479Q428 480 441 480Q504 480 550 451T621 376T646 277Q646 197 606 129T491 22T313 -18Q184 -18 102 42T20 227Q20 289 47 349T136 478ZM342 330Q299 330 274 303T249 236Q249 205 270 186T321 167Q363 167 387 193T411 261Q411 292 390 311T342 330Z" unicode="6"/>
			<glyph d="M144 708H703L674 543L319 0H43L409 515H110Z" unicode="7"/>
			<glyph d="M400 726Q506 726 578 680T650 545Q650 473 607 429T505 371V368Q547 351 579 310T612 217Q612 102 530 42T305 -18Q238 -18 177 1T75 65T35 181Q35 233 58 274T118 341T195 377V381Q154 399 131 433T108 512Q108 581 150 629T259 702T400 726ZM379 560Q348 560 329 542T311 495Q311 473 325 457T366 441Q396 441 414 459T433 504Q433 530 418 545T379 560ZM331 285Q298 285 276 265T255 215Q255 187 272 171T312 156Q350 156 370 175T390 225Q390 249 373 267T331 285Z" unicode="8"/>
			<glyph d="M378 726Q507 726 589 665T671 481Q671 419 644 358T555 230L347 0H46L253 212L269 229Q263 228 250 228Q187 228 140 256T69 332T45 431Q45 511 84 578T199 686T378 726ZM370 541Q328 541 304 515T280 447Q280 416 300 397T349 378Q392 378 417 404T442 472Q442 503 420 522T370 541Z" unicode="9"/>
			<glyph d="M209 526Q258 526 290 496T322 427Q322 372 285 333T192 295Q142 295 110 324T79 395Q79 450 115 488T209 526ZM153 226Q202 226 234 196T266 127Q266 72 229 33T136 -5Q86 -5 54 24T23 95Q23 150 59 188T153 226Z" horiz-adv-x="375" unicode=":"/>
			<glyph d="M209 526Q258 526 290 496T322 427Q322 372 285 333T192 295Q142 295 110 324T79 395Q79 450 115 488T209 526ZM92 190H304L137 -120H-45Z" horiz-adv-x="375" unicode=";"/>
			<glyph d="M588 572V410L314 299L588 196V32L78 235V369Z" horiz-adv-x="666" unicode="&lt;"/>
			<glyph d="M56 472H610V328H56ZM56 282H610V138H56Z" horiz-adv-x="666" unicode="="/>
			<glyph d="M78 572L588 369V235L78 32V196L352 299L78 410Z" horiz-adv-x="666" unicode="&gt;"/>
			<glyph d="M362 728Q471 728 539 684T607 542Q607 490 588 454T535 390T441 330Q417 316 406 303T393 275L389 249H182L188 286Q198 340 227 372T312 443L333 457Q358 473 367 484T376 512Q376 529 364 537T335 545Q303 545 284 522T260 465L58 501Q84 615 168 671T362 728ZM284 223Q334 223 366 193T399 121Q399 65 362 26T267 -13Q215 -13 183 17T151 89Q151 145 188 184T284 223Z" horiz-adv-x="583" unicode="?"/>
			<glyph d="M463 726Q551 726 627 693T750 596T797 445Q797 373 770 308T687 201T546 160Q505 160 475 176T441 220H439Q424 196 392 178T326 160Q262 160 228 198T194 299Q194 362 221 422T301 522T422 561Q461 561 482 545T506 509H508L517 534H650L610 421Q596 382 584 345T573 296Q573 289 579 284T595 280Q633 280 657 320T681 427Q681 529 621 575T458 622Q374 622 303 585T190 480T149 321Q149 210 219 150T410 90Q464 90 516 108T614 160L674 77Q622 34 550 8T399 -18Q289 -18 203 20T69 132T21 309Q21 435 82 529T244 675T463 726ZM418 445Q399 445 381 425T352 375T341 322Q341 303 351 292T379 281Q400 281 418 301T446 350T457 406Q457 423 446 434T418 445Z" horiz-adv-x="800" unicode="@"/>
			<glyph d="M352 708H596L720 0H480L464 108H234L175 0H-83ZM424 467L323 285H445Z" horiz-adv-x="775" unicode="A"/>
			<glyph d="M132 708H456Q541 708 602 670T664 553Q664 483 625 436T521 372V370Q571 361 605 320T640 219Q640 114 556 57T336 0H7ZM314 529L298 432H362Q394 432 416 444T438 486Q438 508 420 518T372 529ZM273 287L254 180H313Q358 180 384 192T411 239Q411 262 393 274T341 287Z" horiz-adv-x="690" unicode="B"/>
			<glyph d="M457 728Q545 728 616 700T726 629L565 463Q547 488 517 501T451 514Q402 514 363 488T304 417T283 320Q283 266 317 231T413 196Q448 196 481 211T541 251L655 81Q542 -20 369 -20Q264 -20 187 18T71 127T31 293Q31 413 86 512T238 670T457 728Z" horiz-adv-x="686" unicode="C"/>
			<glyph d="M132 708H425Q511 708 588 676T715 577T765 406Q765 284 709 192T555 50T333 0H7ZM324 512L268 199H343Q400 199 441 224T504 292T525 381Q525 439 490 475T386 512Z" horiz-adv-x="787" unicode="D"/>
			<glyph d="M132 708H595L561 515H316L304 447H538L506 267H272L259 193H533L499 0H7Z" horiz-adv-x="592" unicode="E"/>
			<glyph d="M132 708H588L554 514H324L309 432H527L494 244H277L234 0H7Z" horiz-adv-x="569" unicode="F"/>
			<glyph d="M452 728Q543 728 615 701T726 629L570 465Q532 523 451 523Q404 523 363 497T297 425T272 317Q272 255 307 218T414 181Q430 181 447 184T477 192L488 254H372L404 436H725L657 50Q598 18 528 -1T385 -20Q278 -20 198 16T74 123T31 293Q31 413 85 512T235 670T452 728Z" horiz-adv-x="763" unicode="G"/>
			<glyph d="M132 708H362L319 465H521L564 708H796L671 0H440L488 272H286L238 0H7Z" horiz-adv-x="798" unicode="H"/>
			<glyph d="M132 708H365L240 0H7Z" horiz-adv-x="367" unicode="I"/>
			<glyph d="M338 708H570L489 255Q475 172 449 116T364 20T206 -20Q108 -20 42 27T-48 159L164 234Q167 215 179 203T209 191Q231 191 241 206T257 251Z" horiz-adv-x="562" unicode="J"/>
			<glyph d="M132 708H356L308 437H311L535 708H817L499 366L718 0H441L286 298H284L232 0H7Z" horiz-adv-x="740" unicode="K"/>
			<glyph d="M132 708H365L275 198H514L479 0H7Z" horiz-adv-x="547" unicode="L"/>
			<glyph d="M132 708H427L489 320H494L678 708H1001L876 0H651L730 410H724L515 0H352L289 410H284L223 0H7Z" horiz-adv-x="1003" unicode="M"/>
			<glyph d="M132 708H359L502 339H506L564 708H789L664 0H431L291 351H287L232 0H7Z" horiz-adv-x="791" unicode="N"/>
			<glyph d="M461 726Q573 726 652 685T772 572T813 404Q813 287 759 190T607 38T382 -18Q271 -18 192 22T72 136T31 304Q31 421 85 517T236 670T461 726ZM442 516Q392 516 353 488T293 416T272 323Q272 267 306 230T403 194Q453 194 491 221T551 292T572 387Q572 443 537 479T442 516Z" horiz-adv-x="833" unicode="O"/>
			<glyph d="M132 708H396Q531 708 604 651T678 494Q678 361 592 296T347 231H279L237 0H7ZM331 527L309 405H346Q395 405 421 421T448 471Q448 501 427 514T366 527Z" horiz-adv-x="680" unicode="P"/>
			<glyph d="M461 726Q568 726 647 689T770 583T813 423Q813 367 796 317T755 231T708 179L707 175L823 182L791 0H382Q276 0 197 36T74 140T31 300Q31 418 85 515T238 669T461 726ZM442 517Q392 517 353 490T293 419T272 328Q272 273 306 236T403 199Q455 199 493 226T552 297T572 391Q572 446 537 481T442 517Z" horiz-adv-x="863" unicode="Q"/>
			<glyph d="M132 708H423Q540 708 608 656T676 512Q676 426 635 368T521 289L659 0H399L302 259H274L230 0H7ZM323 525L302 406H348Q446 406 446 471Q446 500 425 512T366 525Z" horiz-adv-x="704" unicode="R"/>
			<glyph d="M368 728Q444 728 513 704T621 640L473 497Q455 518 427 530T366 542Q336 542 314 529T293 493Q293 475 310 463T368 439Q466 407 514 358T563 232Q563 146 515 89T394 6T245 -20Q160 -20 79 7T-51 82L107 228Q129 202 170 185T244 168Q279 168 300 180T321 213Q321 231 302 245T238 274Q146 303 101 347T56 471Q56 544 95 602T206 694T368 728Z" horiz-adv-x="601" unicode="S"/>
			<glyph d="M64 708H648L613 513H440L350 0H118L208 513H29Z" horiz-adv-x="583" unicode="T"/>
			<glyph d="M121 708H350L277 299Q275 288 275 266Q275 230 296 206T363 183Q418 183 440 213T473 295L548 708H773L696 260Q673 127 584 54T344 -18Q253 -18 184 8T78 85T40 203Q40 229 46 269Z" horiz-adv-x="771" unicode="U"/>
			<glyph d="M55 708H304L336 264H340L553 708H820L415 0H157Z" horiz-adv-x="720" unicode="V"/>
			<glyph d="M64 708H309V303H313L479 708H717L725 303H729L895 708H1136L802 0H564L544 408H540L354 0H119Z" horiz-adv-x="1050" unicode="W"/>
			<glyph d="M70 708H333L410 519L556 708H836L530 372L720 0H453L364 211L196 0H-88L243 369Z" horiz-adv-x="766" unicode="X"/>
			<glyph d="M22 708H280L356 489L507 708H789L440 291L389 0H158L209 291Z" horiz-adv-x="677" unicode="Y"/>
			<glyph d="M119 708H682L652 540L304 197H600L565 0H-17L17 194L347 516H85Z" horiz-adv-x="668" unicode="Z"/>
			<glyph d="M111 732H360L337 599H250L140 -23H227L203 -156H-46Z" horiz-adv-x="360" unicode="["/>
			<glyph d="M155 767L458 -11L301 -59L-3 719Z" horiz-adv-x="455" unicode="\"/>
			<glyph d="M136 732H384L227 -156H-21L3 -23H90L200 599H113Z" horiz-adv-x="360" unicode="]"/>
			<glyph d="M280 708H434L635 343H457L356 530L255 343H77Z" horiz-adv-x="714" unicode="^"/>
			<glyph d="M0 -75H500V-185H0Z" horiz-adv-x="500" unicode="_"/>
			<glyph d="M305 542Q423 542 484 493T546 357Q546 320 538 274L504 81Q497 40 497 0H305L307 48H305Q250 -14 157 -14Q94 -14 47 21T0 125Q0 330 337 330Q338 335 338 341Q338 361 321 371T275 382Q244 382 213 370T158 336L60 448Q107 492 174 517T305 542ZM318 216Q263 216 229 202T196 160Q196 124 242 124Q275 124 298 145T328 199L331 216Z" horiz-adv-x="588" unicode="a"/>
			<glyph d="M127 756H351L303 480H305Q329 506 367 522T443 538Q510 538 558 508T630 428T655 313Q655 224 616 149T511 31T362 -13Q312 -13 270 6T208 56H206L196 0H-6ZM357 359Q312 359 283 325T255 244Q255 210 276 189T334 168Q381 168 409 201T437 283Q437 316 416 337T357 359Z" horiz-adv-x="690" unicode="b"/>
			<glyph d="M334 542Q396 542 448 524T529 472L402 333Q394 344 376 352T335 361Q286 361 255 328T224 249Q224 217 246 194T309 172Q332 172 353 181T386 202L475 51Q390 -16 268 -16Q191 -16 132 13T41 95T9 219Q9 305 50 379T166 498T334 542Z" horiz-adv-x="504" unicode="c"/>
			<glyph d="M486 756H709L576 0H375L385 56H383Q360 25 317 6T221 -13Q154 -13 106 16T33 97T9 212Q9 301 47 375T152 494T302 538Q342 538 380 522T436 480H438ZM330 359Q283 359 255 326T227 244Q227 211 248 189T307 168Q352 168 380 201T409 283Q409 317 388 338T330 359Z" horiz-adv-x="690" unicode="d"/>
			<glyph d="M338 542Q453 542 520 479T587 307Q587 256 573 211H215Q214 208 214 204Q214 175 241 161T300 148Q326 148 350 157T392 183L543 79Q449 -16 285 -16Q208 -16 145 11T46 92T9 223Q9 312 51 385T168 500T338 542ZM323 397Q286 397 259 375T227 330H392Q393 334 393 342Q393 367 374 382T323 397Z" horiz-adv-x="622" unicode="e"/>
			<glyph d="M393 785Q420 785 448 781T493 770L457 602Q437 611 414 611Q381 611 366 592T345 538L343 526H454L426 365H318L253 0H30L95 365H5L33 526H120L123 542Q143 662 207 723T393 785Z" horiz-adv-x="418" unicode="f"/>
			<glyph d="M302 538Q343 538 382 520T445 469H448L457 526H668L585 53Q558 -100 472 -170T237 -240Q159 -240 84 -218T-36 -158L70 -4Q101 -34 145 -50T230 -67Q346 -67 363 31L368 57H365Q347 36 310 18T230 0Q123 0 66 59T9 213Q9 302 46 376T150 494T302 538ZM330 360Q281 360 252 324T224 242Q224 211 242 188T305 165Q352 165 381 201T410 285Q410 319 388 339T330 360Z" horiz-adv-x="693" unicode="g"/>
			<glyph d="M127 756H352L301 465H303Q329 496 369 517T452 538Q534 538 573 494T613 383Q613 348 607 316L552 0H327L376 279Q379 297 379 313Q379 334 367 346T333 358Q310 358 292 337T268 278L219 0H-6Z" horiz-adv-x="661" unicode="h"/>
			<glyph d="M229 791Q277 791 308 762T339 694Q339 640 303 602T213 565Q164 565 133 593T102 662Q102 716 137 753T229 791ZM88 526H312L219 0H-5Z" horiz-adv-x="335" unicode="i"/>
			<glyph d="M236 791Q284 791 315 762T346 694Q346 640 310 602T220 565Q171 565 140 593T109 662Q109 716 144 753T236 791ZM96 526H320L227 1Q213 -75 186 -129T103 -216T-44 -249Q-65 -249 -91 -246T-136 -237L-98 -55Q-81 -60 -62 -60Q-35 -60 -18 -44T4 7Z" horiz-adv-x="341" unicode="j"/>
			<glyph d="M127 756H352L274 325H277L425 526H698L482 276L612 0H350L260 229H257L218 0H-6Z" horiz-adv-x="650" unicode="k"/>
			<glyph d="M127 756H356L223 0H-6Z" horiz-adv-x="338" unicode="l"/>
			<glyph d="M450 538Q557 538 594 460Q656 538 752 538Q810 538 848 513T905 450T923 370Q923 346 918 319L862 0H637L686 279Q689 296 689 312Q689 334 678 346T648 358Q626 358 610 336T588 278L539 0H315L364 277Q367 292 367 307Q367 331 356 344T326 358Q306 358 290 338T267 278L218 0H-6L68 423Q78 473 83 526H299Q299 517 292 458H296Q321 492 361 515T450 538Z" horiz-adv-x="971" unicode="m"/>
			<glyph d="M452 538Q534 538 573 494T613 383Q613 348 607 316L552 0H327L376 279Q379 297 379 313Q379 334 367 346T333 358Q310 358 292 337T268 278L218 0H-6L68 423Q78 473 83 526H299Q299 517 292 458H296Q320 492 362 515T452 538Z" horiz-adv-x="661" unicode="n"/>
			<glyph d="M335 542Q418 542 484 514T587 434T625 307Q625 217 586 143T472 27T295 -16Q214 -16 149 11T46 92T9 219Q9 309 48 382T161 499T335 542ZM328 359Q283 359 255 325T227 244Q227 210 247 189T305 168Q352 168 379 201T407 283Q407 317 386 338T328 359Z" horiz-adv-x="660" unicode="o"/>
			<glyph d="M439 538Q508 538 556 508T630 428T655 313Q655 224 616 149T511 31T362 -13Q321 -13 282 2T226 42H224L173 -240H-50L86 526H298L288 469H290Q317 501 356 519T439 538ZM357 359Q312 359 283 325T255 244Q255 210 276 189T334 168Q381 168 409 201T437 283Q437 316 416 337T357 359Z" horiz-adv-x="690" unicode="p"/>
			<glyph d="M302 538Q346 538 384 520T442 469H446L457 526H668L534 -240H312L361 42H359Q336 16 301 1T222 -13Q155 -13 106 16T33 97T8 212Q8 301 46 375T152 494T302 538ZM328 359Q281 359 253 326T225 244Q225 211 246 189T305 168Q350 168 378 201T407 283Q407 317 386 338T328 359Z" horiz-adv-x="690" unicode="q"/>
			<glyph d="M427 537Q454 537 469 532L427 342Q411 347 380 347Q331 347 300 320T263 255L218 0H-6L69 423Q79 473 84 526H299Q296 493 290 462H293Q347 537 427 537Z" horiz-adv-x="440" unicode="r"/>
			<glyph d="M278 543Q341 543 398 525T491 476L376 344Q359 362 329 374T270 387Q225 387 225 364Q225 354 235 348T272 336Q353 316 395 278T438 175Q438 108 400 64T305 1T186 -18Q123 -18 61 0T-45 54L69 190Q94 165 127 151T192 138Q235 138 235 161Q235 172 221 180T180 196Q105 218 67 252T30 348Q30 411 65 455T158 521T278 543Z" horiz-adv-x="494" unicode="s"/>
			<glyph d="M120 645H337L316 526H417L389 365H291L264 217L262 190Q262 169 273 160T306 152Q330 152 350 158L323 4Q310 -3 277 -8T213 -14Q135 -14 85 16T35 121Q35 145 40 172L75 365H-3L25 526H99Z" horiz-adv-x="401" unicode="t"/>
			<glyph d="M78 526H303L254 247Q251 229 251 213Q251 192 262 180T297 168Q320 168 337 189T362 248L412 526H636L562 103Q552 53 547 0H331Q331 9 338 68H334Q310 34 267 11T178 -12Q96 -12 56 32T17 143Q17 179 23 210Z" horiz-adv-x="658" unicode="u"/>
			<glyph d="M25 526H261L281 235H285L418 526H666L358 0H114Z" horiz-adv-x="622" unicode="v"/>
			<glyph d="M28 526H262L273 247H277L404 526H621L639 247H642L765 526H1000L711 0H488L461 274H459L322 0H100Z" horiz-adv-x="963" unicode="w"/>
			<glyph d="M25 526H269L324 410L423 526H675L432 271L580 0H335L274 125L163 0H-96L164 271Z" horiz-adv-x="620" unicode="x"/>
			<glyph d="M24 526H272L304 238H308L431 526H671L366 -32Q326 -106 289 -149T202 -216T77 -240Q12 -240 -38 -224L0 -47Q27 -59 53 -59Q87 -59 108 -44T144 -4L150 7Z" horiz-adv-x="631" unicode="y"/>
			<glyph d="M71 526H545L519 379L265 167H487L458 0H-27L1 158L238 360H42Z" horiz-adv-x="552" unicode="z"/>
			<glyph d="M282 732H377L353 598H317Q290 598 276 581T258 538L234 400Q225 348 192 320T128 289V287Q153 283 174 262T196 202Q196 192 193 172L170 39Q167 26 167 14Q167 -22 208 -22H244L220 -156H125Q63 -156 33 -121T3 -31Q3 -7 7 13L31 148Q33 156 33 171Q33 199 19 209T-21 219L3 357Q35 357 54 372T80 427L104 563Q117 636 162 684T282 732Z" horiz-adv-x="360" unicode="{"/>
			<glyph d="M49 750H221V-250H49Z" horiz-adv-x="269" unicode="|"/>
			<glyph d="M119 732H214Q276 732 306 697T336 607Q336 583 332 563L308 428Q306 420 306 405Q306 377 319 367T360 357L336 219Q304 219 285 204T259 149L235 13Q222 -60 176 -108T57 -156H-38L-14 -22H22Q49 -22 63 -5T81 38L105 176Q114 228 146 255T211 287V289Q186 293 164 314T143 374Q143 385 146 404L169 537Q172 551 172 562Q172 598 131 598H95Z" horiz-adv-x="360" unicode="}"/>
			<glyph d="" horiz-adv-x="250" unicode=" "/>
			<glyph d="M394 599H500L487 535Q526 529 559 512T613 472L486 333Q478 344 460 352T419 361Q370 361 339 328T308 249Q308 217 330 194T393 172Q416 172 437 181T470 202L559 51Q484 -7 392 -14L381 -73H275L287 -10Q198 7 145 67T93 219Q93 300 129 370T232 486T383 540Z" unicode="¢"/>
			<glyph d="M486 728Q550 728 609 706T698 653L569 504Q544 533 502 533Q460 533 438 508T411 453L408 439H557L530 282H384L367 188H619L586 0H19L52 188H144L161 282H69L96 439H185L193 474Q218 592 291 660T486 728Z" unicode="£"/>
			<glyph d="M380 727Q470 727 536 694T630 612L462 503Q451 524 424 536T371 548Q352 548 338 541T325 523Q325 509 341 499T416 471Q497 443 541 406T585 300Q585 205 494 156Q507 143 517 118T527 67Q527 -17 482 -66T374 -134T251 -153Q166 -153 86 -120T-39 -28L117 95Q141 60 181 43T259 27Q277 27 290 33T304 53Q304 68 285 79T207 109Q151 127 113 146T52 199T29 282Q29 333 57 370T128 430Q104 459 104 506Q104 584 148 634T255 705T380 727ZM247 348Q236 344 230 334T224 315Q224 298 238 287T292 262L369 233Q389 241 389 261Q389 282 374 293T325 318Z" horiz-adv-x="625" unicode="§"/>
			<glyph d="M401 730Q504 730 591 679T729 542T780 353Q780 250 729 164T591 28T401 -22Q298 -22 210 28T71 164T20 353Q20 456 71 542T210 679T401 730ZM401 674Q314 674 240 631T123 514T80 353Q80 266 122 193T237 77T397 34Q484 34 558 77T676 193T720 353Q720 440 677 514T561 631T401 674ZM421 591Q473 591 520 571T596 515L498 435Q472 471 417 471Q372 471 345 436T319 354Q319 307 346 271T423 236Q476 236 503 269L595 181Q563 149 517 131T421 114Q352 114 295 142T206 225T173 353Q173 424 206 478T296 561T421 591Z" horiz-adv-x="800" unicode="©"/>
			<glyph d="M341 719Q403 719 455 688T537 606T568 492Q568 430 537 378T455 297T341 267Q279 267 226 297T143 378T112 492Q112 554 143 606T226 688T341 719ZM341 684Q288 684 244 658T174 588T148 492Q148 440 174 396T244 326T341 300Q393 300 437 326T506 396T532 492Q532 544 506 588T437 658T341 684ZM231 631H345Q395 631 430 611T466 545Q466 519 453 499T418 471L479 365H379L335 459H319V365H231ZM319 562V521H345Q357 521 365 527T373 544Q373 552 364 557T345 562Z" horiz-adv-x="600" unicode="®"/>
			<glyph d="M260 733Q311 733 352 710T416 646T439 554Q439 503 416 462T352 398T260 375Q209 375 168 398T104 462T81 554Q81 605 104 646T168 710T260 733ZM260 651Q220 651 191 623T163 554Q163 514 191 485T260 457Q301 457 329 485T357 554Q357 595 329 623T260 651Z" horiz-adv-x="440" unicode="°"/>
			<glyph d="M337 708H649L501 -133H350L474 570H418L294 -133H144L225 330Q138 335 90 373T42 479Q42 594 120 651T337 708Z" horiz-adv-x="643" unicode="¶"/>
			<glyph d="M176 414Q228 414 262 382T296 308Q296 249 257 208T158 168Q104 168 70 199T37 274Q37 333 76 373T176 414Z" horiz-adv-x="354" unicode="·"/>
			<glyph d="M41 345H381L359 225H19Z" horiz-adv-x="400" unicode="–"/>
			<glyph d="M41 345H581L559 225H19Z" horiz-adv-x="600" unicode="—"/>
			<glyph d="M213 708H373L249 427H64Z" horiz-adv-x="350" unicode="‘"/>
			<glyph d="M189 708H374L226 427H65Z" horiz-adv-x="350" unicode="’"/>
			<glyph d="M205 708H365L237 427H57ZM429 708H589L466 427H286Z" horiz-adv-x="562" unicode="“"/>
			<glyph d="M182 708H362L218 427H58ZM410 708H590L442 427H282Z" horiz-adv-x="562" unicode="”"/>
			<glyph d="M280 708H460L425 511H613L584 345H397L313 -133H133L217 345H35L64 511H245Z" horiz-adv-x="617" unicode="†"/>
			<glyph d="M283 708H462L432 538H618L590 378H404L372 197H558L530 37H345L315 -133H136L166 37H-18L10 197H194L226 378H42L70 538H253Z" horiz-adv-x="617" unicode="‡"/>
			<glyph d="M250 531Q298 531 338 507T403 442T427 354Q427 306 403 265T338 201T250 177Q202 177 161 201T97 265T73 354Q73 402 97 442T161 507T250 531Z" horiz-adv-x="500" unicode="•"/>
			<glyph d="M145 234Q197 234 231 202T265 128Q265 69 226 28T127 -12Q73 -12 39 19T6 94Q6 153 45 193T145 234ZM479 234Q531 234 565 202T599 128Q599 69 560 28T461 -12Q407 -12 373 19T340 94Q340 153 379 193T479 234ZM813 234Q865 234 899 202T933 128Q933 69 894 28T795 -12Q741 -12 707 19T674 94Q674 153 713 193T813 234Z" horiz-adv-x="1000" unicode="…"/>
			<glyph d="M538 728Q577 728 621 721T697 704L619 541Q578 558 524 558Q486 558 451 544T400 507H606L542 376H341Q336 358 334 335H531L468 206H337Q345 182 376 168T447 154Q482 154 515 161T572 181L588 13Q561 -1 511 -10T408 -20Q287 -20 210 41T119 206H11L76 335H123Q123 343 125 354T130 376H43L113 507H166Q214 612 309 670T538 728Z" unicode="€"/>
			<glyph d="M100 708H446V605H334V296H212V605H100ZM506 708H670L759 460L842 708H1005V296H893V541H891L799 296H708L619 541H617V296H506Z" horiz-adv-x="1000" unicode="™"/>
			<glyph d="M240 747H378L568 356L378 -35H238L53 356ZM308 553L224 356L308 160L395 356Z" horiz-adv-x="619" unicode="◊"/>
			<glyph d="M641 791Q689 791 720 762T751 694Q751 640 715 602T625 565Q576 565 545 593T514 662Q514 716 549 753T641 791ZM393 785Q420 785 448 781T493 770L457 602Q437 611 414 611Q381 611 366 592T345 538L343 526H454L426 365H318L253 0H30L95 365H5L33 526H120L123 542Q143 664 208 724T393 785ZM500 526H724L631 0H407Z" horiz-adv-x="747" unicode="ﬁ"/>
			<glyph d="M393 785Q420 785 448 781T493 770L457 602Q437 611 414 611Q381 611 366 592T345 538L343 526H454L426 365H318L253 0H30L95 365H5L33 526H120L123 542Q143 665 208 725T393 785ZM539 756H768L635 0H406Z" horiz-adv-x="750" unicode="ﬂ"/>
		</font>
</defs>
</svg>
