<?xml version="1.0" encoding="UTF-8"?>
<svg height="100%" width="100%" xmlns="http://www.w3.org/2000/svg">
	<defs>
		<font horiz-adv-x="595" id="web">
			<font-face alphabetic="0" ascent="756" descent="-244" font-family="" panose-1="2 11 6 3 2 2 2 2 2 4"/>
			<missing-glyph d="M0 718H512V0H0ZM50 667V50H462V667ZM259 609Q313 609 348 573T383 478Q383 444 370 418T320 358Q283 325 277 306T271 234H225L223 251Q223 307 236 332Q251 360 282 391Q313 420 322 437T332 474Q332 510 309 534T256 559Q223 559 201 536T174 464L124 472Q131 541 167 575T259 609ZM222 184H278V117H222Z" horiz-adv-x="512"/>
			<glyph d="" horiz-adv-x="250" unicode=" "/>
			<glyph d="M117 708H216V207H117ZM167 125Q195 125 214 106T234 60Q234 33 214 13T167 -6Q139 -6 119 13T100 59Q100 86 119 105T167 125Z" horiz-adv-x="334" unicode="!"/>
			<glyph d="M90 708H172V458H90ZM251 708H333V458H251Z" horiz-adv-x="423" unicode="&quot;"/>
			<glyph d="M206 708H281L251 498H369L398 708H473L443 498H533V425H433L413 284H506V211H404L374 0H299L329 211H211L181 0H107L137 211H41V284H147L166 425H68V498H177ZM241 425L221 284H339L358 425Z" horiz-adv-x="574" unicode="#"/>
			<glyph d="M264 789H315V720Q369 719 422 699T512 644L444 581Q422 609 387 624T315 641V403Q377 382 421 358T494 293T523 190Q523 129 495 84T419 14T315 -11V-83H264V-11Q198 -10 140 16T41 88L114 150Q140 114 183 92T264 69V323Q170 350 116 395T63 525Q63 581 90 624T164 691T264 719ZM264 641Q219 638 188 608T158 531Q158 486 186 459T264 418ZM315 309V69Q362 71 394 102T427 189Q427 272 315 309Z" unicode="$"/>
			<glyph d="M619 740L686 707L253 -32L185 1ZM218 720Q266 720 306 696T371 631T395 543Q395 495 371 454T306 390T218 366Q170 366 129 390T65 454T41 543Q41 591 65 631T129 696T218 720ZM218 637Q179 637 151 609T124 543Q124 504 151 476T218 449Q257 449 284 476T312 543Q312 582 284 609T218 637ZM652 342Q700 342 740 318T805 253T829 165Q829 117 805 76T740 12T652 -12Q604 -12 563 12T499 76T475 165Q475 213 499 253T563 318T652 342ZM652 259Q613 259 585 231T558 165Q558 126 585 98T652 71Q691 71 718 98T746 165Q746 204 718 231T652 259Z" horiz-adv-x="870" unicode="%"/>
			<glyph d="M315 726Q365 726 406 707T473 650T498 560Q498 445 346 373L487 228L576 378H686L550 167L712 0H581L493 93Q451 40 400 13T278 -13Q215 -13 162 10T79 79T48 188Q48 320 207 393Q169 433 147 472T126 555Q126 610 152 648T221 706T315 726ZM316 648Q275 648 248 622T221 554Q221 523 242 489T291 431Q407 482 407 558Q407 597 381 622T316 648ZM262 332Q207 309 177 275T148 190Q148 154 166 126T215 82T280 67Q329 67 364 89T430 156Z" horiz-adv-x="723" unicode="&amp;"/>
			<glyph d="M90 708H172V458H90Z" horiz-adv-x="262" unicode="'"/>
			<glyph d="M180 733L248 689Q188 605 153 500T119 288Q119 181 153 76T248 -113L180 -157Q112 -66 73 50T34 288Q34 410 73 526T180 733Z" horiz-adv-x="315" unicode="("/>
			<glyph d="M135 733Q203 642 242 526T281 288Q281 166 242 50T135 -157L67 -113Q127 -29 161 76T196 288Q196 395 161 500T67 689Z" horiz-adv-x="315" unicode=")"/>
			<glyph d="M182 708H262V579L389 620L416 544L289 503L370 394L306 346L222 459L138 346L74 394L155 503L28 544L55 620L182 579Z" horiz-adv-x="454" unicode="*"/>
			<glyph d="M292 566H374V344H596V262H374V40H292V262H70V344H292Z" horiz-adv-x="666" unicode="+"/>
			<glyph d="M103 117H197L114 -133H34Z" horiz-adv-x="260" unicode=","/>
			<glyph d="M44 284H276V204H44Z" horiz-adv-x="320" unicode="-"/>
			<glyph d="M130 125Q158 125 177 106T197 60Q197 33 177 13T130 -6Q102 -6 82 13T63 59Q63 86 82 105T130 125Z" horiz-adv-x="260" unicode="."/>
			<glyph d="M305 742L376 716L69 -33L-2 -9Z" horiz-adv-x="380" unicode="/"/>
			<glyph d="M298 726Q415 726 477 624T539 354Q539 189 478 85T298 -18Q179 -18 117 84T56 354Q56 520 118 623T298 726ZM298 645Q229 645 192 566T155 354Q155 234 189 149T298 64Q374 64 407 149T440 354Q440 477 405 561T298 645Z" unicode="0"/>
			<glyph d="M292 708H379V0H282V590L148 478L91 545Z" unicode="1"/>
			<glyph d="M295 726Q355 726 406 702T488 634T519 525Q519 463 490 414T405 311L175 87H522V0H60V93L342 373Q379 411 399 446T420 523Q420 577 384 611T294 645Q241 645 205 611T161 522L66 538Q74 592 105 634T186 701T295 726Z" unicode="2"/>
			<glyph d="M281 726Q341 726 390 703T469 637T499 534Q499 475 464 431T374 373V371Q438 358 478 311T518 198Q518 130 485 81T397 7T281 -18Q195 -18 132 21T40 138L130 168Q146 121 185 92T279 64Q337 64 379 99T421 199Q421 267 368 298T243 330H213V410H244Q313 410 357 437T402 528Q402 580 365 612T277 645Q233 645 201 622T153 558L65 589Q91 653 148 689T281 726Z" unicode="3"/>
			<glyph d="M332 708H451V242H553V159H451V0H357V159H31V247ZM355 597L131 242H357V597Z" unicode="4"/>
			<glyph d="M108 708H490V622H198L192 436Q230 449 283 449Q351 449 405 421T489 343T520 226Q520 153 488 98T399 12T273 -18Q192 -18 134 20T47 124L135 159Q152 116 189 90T273 64Q336 64 378 106T421 216Q421 292 373 331T255 371Q216 371 174 360T98 332Z" unicode="5"/>
			<glyph d="M306 708H421L231 423L232 421Q246 430 271 435T320 440Q381 440 432 411T512 332T541 218Q541 149 509 95T421 11T297 -18Q227 -18 171 12T84 95T52 215Q52 269 69 315T121 416ZM298 363Q232 363 191 321T150 214Q150 173 168 138T220 84T297 64Q362 64 402 106T443 215Q443 280 403 321T298 363Z" unicode="6"/>
			<glyph d="M64 708H515V620L231 0H120L415 622H64Z" unicode="7"/>
			<glyph d="M298 726Q356 726 404 702T481 635T510 535Q510 478 480 434T401 375V373Q459 358 497 309T535 193Q535 129 503 81T417 7T298 -18Q233 -18 178 7T92 81T60 193Q60 261 98 309T194 373V375Q145 392 115 434T85 533Q85 590 113 634T190 702T298 726ZM298 646Q248 646 215 613T182 530Q182 481 215 448T298 415Q346 415 380 448T414 530Q414 580 380 613T298 646ZM298 332Q237 332 198 294T159 198Q159 138 197 100T298 63Q358 63 397 100T436 198Q436 256 397 294T298 332Z" unicode="8"/>
			<glyph d="M299 726Q368 726 424 695T511 612T543 493Q543 439 526 393T475 292L290 0H175L365 286L364 287Q349 278 322 273T275 268Q214 268 163 296T83 376T54 490Q54 559 86 613T174 696T299 726ZM299 645Q234 645 193 602T152 493Q152 428 192 386T298 345Q364 345 405 386T446 494Q446 535 427 570T375 625T299 645Z" unicode="9"/>
			<glyph d="M150 480Q178 480 197 461T217 415Q217 388 197 368T150 349Q122 349 102 368T83 414Q83 441 102 460T150 480ZM150 125Q178 125 197 106T217 60Q217 33 197 13T150 -6Q122 -6 102 13T83 59Q83 86 102 105T150 125Z" horiz-adv-x="300" unicode=":"/>
			<glyph d="M150 480Q178 480 197 461T217 415Q217 388 197 368T150 349Q122 349 102 368T83 414Q83 441 102 460T150 480ZM112 117H206L123 -133H43Z" horiz-adv-x="300" unicode=";"/>
			<glyph d="M589 564V479L204 303L587 127V42L79 273V333Z" horiz-adv-x="666" unicode="&lt;"/>
			<glyph d="M70 426H596V345H70ZM70 261H596V180H70Z" horiz-adv-x="666" unicode="="/>
			<glyph d="M79 564L587 333V273L79 42V127L462 303L79 479Z" horiz-adv-x="666" unicode="&gt;"/>
			<glyph d="M265 723Q321 723 367 701T441 638T468 538Q468 498 456 468T425 417T372 367Q342 341 328 325T307 289T301 236V201H207V249Q207 298 224 330T280 398L317 433Q342 454 355 477T368 532Q368 580 337 608T259 637Q211 637 180 605T144 527L48 538Q61 623 120 673T265 723ZM259 125Q287 125 306 106T326 60Q326 33 306 13T259 -6Q231 -6 211 13T192 59Q192 86 211 105T259 125Z" horiz-adv-x="500" unicode="?"/>
			<glyph d="M415 726Q509 726 590 689T720 580T769 405Q769 328 742 272T670 188T573 160Q533 160 509 180T486 230H481Q467 203 434 181T358 160Q291 160 252 205T214 323Q214 380 239 432T309 516T412 549Q449 549 476 533T513 492H515L524 534H600L561 346Q551 301 551 275Q551 254 559 242T591 230Q635 230 663 277T691 397Q691 479 656 536T558 624T414 654Q328 654 261 614T157 506T120 351Q120 261 158 194T265 90T423 54Q504 54 566 79T682 155L728 102Q671 42 590 12T415 -18Q302 -18 215 29T81 161T33 353Q33 457 84 542T223 677T415 726ZM412 478Q378 478 353 454T315 393T302 320Q302 286 318 258T374 231Q412 231 437 255T474 314T486 382Q486 423 469 450T412 478Z" horiz-adv-x="800" unicode="@"/>
			<glyph d="M312 708H402L706 0H594L522 174H186L115 0H5ZM354 593L221 261H486Z" horiz-adv-x="711" unicode="A"/>
			<glyph d="M86 708H330Q422 708 487 665T552 529Q552 472 518 431T428 375V373Q498 365 541 319T585 201Q585 103 510 51T319 0H86ZM185 625V409H314Q375 409 414 436T453 519Q453 625 298 625ZM185 325V84H309Q383 84 434 112T485 206Q485 267 443 296T318 325Z" horiz-adv-x="642" unicode="B"/>
			<glyph d="M427 726Q503 726 573 697T681 616L603 556Q577 593 529 616T427 639Q347 639 286 601T191 498T158 355Q158 275 191 210T284 107T424 70Q484 70 533 94T614 164L693 110Q650 51 581 16T423 -18Q316 -18 231 29T98 162T50 355Q50 463 99 547T234 679T427 726Z" horiz-adv-x="708" unicode="C"/>
			<glyph d="M86 708H329Q426 708 513 670T655 552T711 354Q711 239 655 159T512 39T329 0H86ZM185 622V87H309Q395 87 462 119T567 211T605 354Q605 439 567 499T462 591T309 622Z" horiz-adv-x="761" unicode="D"/>
			<glyph d="M86 708H540V621H185V409H519V324H185V88H555V0H86Z" horiz-adv-x="601" unicode="E"/>
			<glyph d="M86 708H528V621H185V401H506V316H185V0H86Z" horiz-adv-x="568" unicode="F"/>
			<glyph d="M427 726Q509 726 576 701T689 634L620 562Q588 597 537 618T428 639Q347 639 286 601T191 498T158 355Q158 276 191 211T287 108T431 71Q531 71 596 106V303H439V387H694V44Q579 -18 428 -18Q319 -18 233 29T98 162T50 355Q50 463 99 547T234 679T427 726Z" horiz-adv-x="778" unicode="G"/>
			<glyph d="M86 708H185V412H543V708H643V0H543V324H185V0H86Z" horiz-adv-x="729" unicode="H"/>
			<glyph d="M86 708H185V0H86Z" horiz-adv-x="271" unicode="I"/>
			<glyph d="M316 708H415V217Q415 111 365 46T214 -18Q135 -18 83 23T15 132L107 158Q115 119 142 94T209 70Q268 70 292 110T316 221Z" horiz-adv-x="495" unicode="J"/>
			<glyph d="M86 708H185V396H187L503 708H640L296 384L661 0H519L187 366H185V0H86Z" horiz-adv-x="659" unicode="K"/>
			<glyph d="M86 708H185V88H501V0H86Z" horiz-adv-x="511" unicode="L"/>
			<glyph d="M86 708H240L452 164H454L663 708H817V0H718V592H716L481 0H418L184 592H182V0H86Z" horiz-adv-x="903" unicode="M"/>
			<glyph d="M86 708H215L585 142H587V708H686V0H561L187 578H185V0H86Z" horiz-adv-x="772" unicode="N"/>
			<glyph d="M424 726Q531 726 617 679T751 548T800 355Q800 248 751 163T616 30T424 -18Q318 -18 232 30T98 163T50 355Q50 464 98 548T232 679T424 726ZM424 639Q345 639 284 601T190 498T157 355Q157 276 190 211T284 108T424 71Q504 71 565 108T659 211T693 355Q693 433 660 498T565 601T424 639Z" horiz-adv-x="849" unicode="O"/>
			<glyph d="M86 708H302Q421 708 488 659T555 511Q555 409 484 360T297 311H185V0H86ZM185 624V395H290Q367 395 411 423T455 511Q455 624 292 624Z" unicode="P"/>
			<glyph d="M419 726Q523 726 606 679T737 550T785 363Q785 271 745 199T639 85V83H834V0H418Q311 0 227 45T96 172T50 363Q50 468 98 550T230 679T419 726ZM419 639Q342 639 282 602T189 502T157 363Q157 286 189 223T281 123T418 87Q494 87 553 123T646 223T679 363Q679 439 647 502T556 602T419 639Z" horiz-adv-x="846" unicode="Q"/>
			<glyph d="M86 708H313Q425 708 495 661T565 512Q565 436 518 387T393 325L591 0H471L291 315H185V0H86ZM185 624V398H299Q375 398 420 425T465 512Q465 572 421 598T306 624Z" horiz-adv-x="614" unicode="R"/>
			<glyph d="M305 726Q366 726 420 704T508 645L438 577Q416 607 379 625T300 643Q246 643 204 613T162 528Q162 492 180 469T227 434T307 404Q372 383 413 363T485 302T515 197Q515 127 481 78T391 6T270 -18Q201 -18 138 8T37 85L114 150Q139 113 181 90T272 67Q328 67 371 98T414 188Q414 228 392 253T338 292T246 325Q191 342 152 363T87 424T62 524Q62 591 97 636T187 704T305 726Z" horiz-adv-x="569" unicode="S"/>
			<glyph d="M8 708H561V621H334V0H235V621H8Z" horiz-adv-x="569" unicode="T"/>
			<glyph d="M81 708H180V268Q180 185 222 128T356 71Q447 71 489 128T532 268V708H631V262Q631 187 600 123T508 20T356 -18Q266 -18 204 20T111 123T81 262Z" horiz-adv-x="712" unicode="U"/>
			<glyph d="M-2 708H108L321 128H324L537 708H644L366 0H274Z" horiz-adv-x="642" unicode="V"/>
			<glyph d="M10 708H117L273 144H275L441 708H550L715 144H717L873 708H978L770 0H667L495 569H493L321 0H218Z" horiz-adv-x="988" unicode="W"/>
			<glyph d="M43 708H164L334 444L502 708H618L392 373L649 0H524L330 298L140 0H18L271 375Z" horiz-adv-x="668" unicode="X"/>
			<glyph d="M-3 708H119L315 388L512 708H627L362 306V0H262V306Z" horiz-adv-x="624" unicode="Y"/>
			<glyph d="M41 708H553V621L153 88H559V0H33V87L432 621H41Z" horiz-adv-x="592" unicode="Z"/>
			<glyph d="M59 732H236V666H143V-90H236V-156H59Z" horiz-adv-x="315" unicode="["/>
			<glyph d="M74 742L382 -9L311 -33L4 716Z" horiz-adv-x="380" unicode="\"/>
			<glyph d="M79 732H256V-156H79V-90H172V666H79Z" horiz-adv-x="315" unicode="]"/>
			<glyph d="M300 708H366L592 309H501L332 609L165 309H74Z" horiz-adv-x="666" unicode="^"/>
			<glyph d="M0 -75H500V-138H0Z" horiz-adv-x="500" unicode="_"/>
			<glyph d="M268 487Q366 487 416 435T466 301V94Q466 32 473 0H388Q380 34 380 68H377Q351 29 311 8T218 -12Q177 -12 137 2T72 50T46 134Q46 220 126 257T356 294H376V307Q376 358 344 384T259 411Q220 411 184 396T124 356L74 416Q109 449 160 468T268 487ZM353 226Q249 226 195 205T142 136Q142 99 169 80T239 62Q303 62 339 100T376 201V226Z" horiz-adv-x="542" unicode="a"/>
			<glyph d="M83 756H177V403H180Q206 440 250 463T349 487Q418 487 472 454T556 364T586 238Q586 168 556 111T472 20T347 -13Q296 -13 249 10T176 75H174V0H83ZM331 409Q284 409 247 385T191 322T171 237Q171 191 191 152T247 89T331 66Q380 66 416 90T470 153T489 238Q489 284 470 323T416 385T331 409Z" horiz-adv-x="636" unicode="b"/>
			<glyph d="M303 487Q355 487 404 466T481 409L413 354Q398 378 367 393T304 408Q257 408 221 384T167 322T149 237Q149 191 167 152T221 89T305 66Q340 66 370 80T419 118L482 61Q451 26 406 6T305 -13Q232 -13 174 18T83 106T50 237Q50 310 83 367T173 455T303 487Z" horiz-adv-x="494" unicode="c"/>
			<glyph d="M458 756H552V0H461V75H459Q433 33 386 10T288 -13Q217 -13 162 20T78 111T49 238Q49 308 79 364T163 454T287 487Q342 487 385 463T456 403H458ZM304 409Q254 409 218 385T165 323T147 238Q147 192 165 153T219 90T304 66Q351 66 387 89T444 152T464 237Q464 283 444 322T387 385T304 409Z" horiz-adv-x="635" unicode="d"/>
			<glyph d="M295 487Q400 487 461 420T523 241Q523 220 522 209H146Q147 169 168 136T224 84T300 65Q346 65 381 85T438 137L504 84Q429 -13 300 -13Q228 -13 171 18T82 106T50 236Q50 309 82 366T170 455T295 487ZM295 413Q235 413 193 374T146 279H428Q426 338 392 375T295 413Z" horiz-adv-x="573" unicode="e"/>
			<glyph d="M277 768Q311 768 336 761L325 680Q301 687 278 687Q231 687 212 656T194 573V474H304V397H194V0H100V397H6V474H100V573Q100 662 143 715T277 768Z" horiz-adv-x="310" unicode="f"/>
			<glyph d="M288 487Q341 487 387 464T459 398H461V474H552V24Q552 -102 485 -171T290 -240Q228 -240 165 -217T58 -154L118 -81Q149 -116 196 -137T291 -158Q379 -158 418 -110T458 17V78H456Q430 39 385 17T289 -4Q218 -4 163 28T79 116T50 240Q50 308 79 364T163 454T288 487ZM304 409Q256 409 220 386T166 326T147 242Q147 198 166 159T220 98T304 75Q351 75 388 97T445 157T465 242Q465 287 444 325T387 386T304 409Z" horiz-adv-x="632" unicode="g"/>
			<glyph d="M83 756H177V402H179Q196 438 237 462T329 487Q416 487 461 433T506 294V0H412V262Q412 328 388 367T305 407Q249 407 213 364T177 251V0H83Z" horiz-adv-x="584" unicode="h"/>
			<glyph d="M129 706Q155 706 173 688T192 645Q192 620 173 602T129 585Q103 585 85 602T67 645Q67 670 85 688T129 706ZM82 474H176V0H82Z" horiz-adv-x="259" unicode="i"/>
			<glyph d="M130 706Q156 706 174 688T193 645Q193 620 174 602T130 585Q104 585 85 602T67 645Q67 670 85 688T130 706ZM83 474H177V-61Q177 -143 143 -191T23 -240Q-1 -240 -31 -234L-21 -154Q-1 -159 17 -159Q56 -159 69 -133T83 -58Z" horiz-adv-x="260" unicode="j"/>
			<glyph d="M83 756H177V268H180L379 474H505L283 259L524 0H394L180 246H177V0H83Z" horiz-adv-x="527" unicode="k"/>
			<glyph d="M83 756H177V0H83Z" horiz-adv-x="260" unicode="l"/>
			<glyph d="M324 487Q374 487 412 463T471 392Q495 437 538 462T632 487Q717 487 763 434T809 294V0H715V263Q715 408 610 408Q552 408 521 364T490 256V0H396V282Q396 408 296 408Q244 408 209 365T175 252V0H81V372Q81 433 77 474H166Q170 426 170 396H173Q192 436 233 461T324 487Z" horiz-adv-x="887" unicode="m"/>
			<glyph d="M327 487Q414 487 459 433T504 294V0H410V263Q410 329 386 368T302 408Q246 408 210 365T175 252V0H81V372Q81 433 77 474H166Q170 426 170 396H173Q191 435 234 461T327 487Z" horiz-adv-x="582" unicode="n"/>
			<glyph d="M305 487Q377 487 435 455T527 366T561 238Q561 166 527 109T435 19T305 -13Q233 -13 175 19T83 109T50 238Q50 310 83 366T175 455T305 487ZM305 409Q256 409 220 385T166 323T147 238Q147 192 166 152T220 89T305 66Q354 66 390 89T444 152T463 238Q463 284 444 323T390 385T305 409Z" horiz-adv-x="610" unicode="o"/>
			<glyph d="M347 487Q416 487 470 454T554 364T584 238Q584 168 554 111T470 20T345 -13Q294 -13 249 9T178 71H175V-240H81V474H173V400H176Q200 439 245 463T347 487ZM329 409Q282 409 245 385T189 322T169 237Q169 191 189 152T245 89T329 66Q378 66 414 90T468 153T487 238Q487 284 468 323T414 385T329 409Z" horiz-adv-x="634" unicode="p"/>
			<glyph d="M287 487Q343 487 388 463T458 400H461V474H552V-240H458V71H456Q430 32 384 9T288 -13Q217 -13 162 20T78 111T49 238Q49 308 79 364T163 454T287 487ZM304 409Q254 409 218 385T165 323T147 238Q147 192 165 153T219 90T304 66Q351 66 387 89T444 152T464 237Q464 283 444 322T387 385T304 409Z" horiz-adv-x="633" unicode="q"/>
			<glyph d="M318 487Q340 487 355 483L351 396Q331 401 308 401Q244 401 209 357T175 249V0H81V372Q81 433 77 474H166Q170 426 170 394H173Q193 436 232 461T318 487Z" horiz-adv-x="362" unicode="r"/>
			<glyph d="M230 487Q282 487 329 466T402 409L337 354Q321 380 291 396T227 413Q191 413 165 397T139 351Q139 323 162 308T247 280Q324 263 365 229T406 140Q406 64 353 25T217 -13Q161 -13 110 9T26 72L93 129Q112 100 146 81T219 63Q259 63 286 79T313 132Q313 163 284 179T189 211Q124 225 87 256T51 342Q51 412 103 449T230 487Z" horiz-adv-x="444" unicode="s"/>
			<glyph d="M94 610H187V474H313V397H187V150Q187 107 203 88T254 70Q285 70 309 82L312 5Q276 -8 232 -8Q165 -8 129 29T94 140V397H3V474H94Z" horiz-adv-x="329" unicode="t"/>
			<glyph d="M77 474H171V212Q171 145 195 105T279 66Q336 66 371 109T406 222V474H500V102Q500 41 504 0H415Q411 48 411 78H409Q390 39 347 13T254 -13Q167 -13 122 41T77 180Z" horiz-adv-x="582" unicode="u"/>
			<glyph d="M9 474H113L252 101H254L394 474H494L304 0H202Z" horiz-adv-x="504" unicode="v"/>
			<glyph d="M14 474H116L223 112H225L338 474H437L552 112H554L661 474H760L603 0H505L388 356H386L270 0H172Z" horiz-adv-x="773" unicode="w"/>
			<glyph d="M24 474H140L256 311L373 474H483L312 250L503 0H386L254 185L120 0H7L197 249Z" horiz-adv-x="511" unicode="x"/>
			<glyph d="M9 474H114L261 102H263L394 474H494L264 -112Q239 -177 202 -208T100 -240Q67 -240 38 -233L47 -150Q71 -158 94 -158Q129 -158 147 -139T182 -79L212 0Z" horiz-adv-x="504" unicode="y"/>
			<glyph d="M46 474H419V397L149 79H430V0H33V77L301 397H46Z" horiz-adv-x="462" unicode="z"/>
			<glyph d="M197 732H265V663H214Q184 663 173 643T163 591V408Q163 368 146 342T109 304T70 289V287Q102 283 132 255T163 165V-15Q163 -47 173 -67T214 -87H265V-156H197Q146 -156 112 -124T79 -27V157Q79 204 58 227T5 251V325Q37 325 58 347T79 415V603Q79 668 112 700T197 732Z" horiz-adv-x="315" unicode="{"/>
			<glyph d="M70 750H152V-250H70Z" horiz-adv-x="222" unicode="|"/>
			<glyph d="M50 732H118Q169 732 202 700T236 603V415Q236 370 257 347T310 325V251Q278 251 257 227T236 157V-27Q236 -92 202 -124T118 -156H50V-87H102Q131 -87 141 -67T152 -15V165Q152 227 183 255T246 287V289Q228 292 206 304T168 342T152 408V591Q152 623 141 643T102 663H50Z" horiz-adv-x="315" unicode="}"/>
			<glyph d="" horiz-adv-x="250" unicode=" "/>
			<glyph d="M299 550H350V486Q399 484 442 465T516 411L450 351Q432 374 406 388T350 404V70Q380 71 407 85T452 123L516 63Q485 28 441 9T350 -12V-78H299V-11Q233 -5 184 29T109 117T83 238Q83 339 141 406T299 485ZM299 403Q241 392 208 346T176 237Q176 174 209 128T299 71Z" unicode="¢"/>
			<glyph d="M399 726Q448 726 490 711T564 666L505 599Q486 620 457 632T397 645Q335 645 301 599T268 479V397H434V325H268V84H531V0H70V84H170V325H73V397H170V485Q170 544 192 599T266 690T399 726Z" unicode="£"/>
			<glyph d="M319 726Q381 726 429 702T502 636L431 584Q416 612 386 630T320 648Q279 648 250 627T221 570Q221 532 250 508T349 456Q431 422 473 384T515 283Q515 240 491 204T430 153Q491 112 491 33Q491 -23 462 -61T387 -119T288 -139Q220 -139 162 -110T75 -25L158 21Q174 -17 210 -37T288 -57Q328 -57 360 -36T393 27Q393 55 379 73T337 106T249 147Q195 171 164 189T113 237T93 308Q93 357 121 393T193 447Q124 491 124 564Q124 616 152 653T224 708T319 726ZM259 402Q229 394 207 374T185 322Q185 298 197 281T227 254T280 228L364 192Q388 200 405 221T423 270Q423 307 400 328T334 369Z" unicode="§"/>
			<glyph d="M401 730Q504 730 591 679T729 542T780 353Q780 250 729 164T591 28T401 -22Q298 -22 210 28T71 164T20 353Q20 456 71 542T210 679T401 730ZM401 674Q314 674 240 631T123 514T80 353Q80 266 123 193T240 77T401 34Q488 34 561 77T677 193T720 353Q720 440 677 514T561 631T401 674ZM417 585Q462 585 505 568T573 519L515 473Q499 495 472 506T417 517Q351 517 309 472T268 360Q268 289 308 245T414 201Q448 201 475 214T519 251L580 208Q520 132 413 132Q347 132 294 161T212 241T183 360Q183 428 213 479T297 557T417 585Z" horiz-adv-x="800" unicode="©"/>
			<glyph d="M300 720Q362 720 414 689T497 607T528 493Q528 431 497 379T414 298T300 268Q238 268 185 298T102 379T72 493Q72 555 102 607T185 689T300 720ZM300 685Q248 685 204 659T134 589T108 493Q108 441 134 397T204 327T300 301Q352 301 396 327T466 397T492 493Q492 545 466 589T396 659T300 685ZM203 624H313Q354 624 382 605T410 544Q410 519 396 501T359 476L427 368H355L300 467H264V368H203ZM264 574V511H311Q325 511 336 520T348 544Q348 558 336 566T311 574Z" horiz-adv-x="600" unicode="®"/>
			<glyph d="M200 720Q243 720 278 699T334 643T355 565Q355 522 334 487T278 431T200 411Q157 411 121 431T65 487T45 565Q45 608 65 643T121 699T200 720ZM200 657Q162 657 135 630T109 565Q109 528 136 501T200 474Q238 474 264 501T291 565Q291 603 264 630T200 657Z" horiz-adv-x="400" unicode="°"/>
			<glyph d="M270 708H523V-126H445V645H330V-126H251V327Q189 327 141 351T66 417T39 511Q39 608 100 658T270 708Z" horiz-adv-x="600" unicode="¶"/>
			<glyph d="M131 369Q159 369 178 349T198 303Q198 276 178 256T131 237Q103 237 83 256T63 302Q63 329 82 349T131 369Z" horiz-adv-x="260" unicode="·"/>
			<glyph d="M30 282H370V207H30Z" horiz-adv-x="400" unicode="–"/>
			<glyph d="M30 282H570V207H30Z" horiz-adv-x="600" unicode="—"/>
			<glyph d="M125 708H204L136 458H42Z" horiz-adv-x="246" unicode="‘"/>
			<glyph d="M111 708H204L121 458H42Z" horiz-adv-x="246" unicode="’"/>
			<glyph d="M125 708H204L136 458H42ZM305 708H384L316 458H222Z" horiz-adv-x="426" unicode="“"/>
			<glyph d="M111 708H204L121 458H42ZM291 708H384L301 458H222Z" horiz-adv-x="426" unicode="”"/>
			<glyph d="M242 708H332V505H534V426H332V-126H242V426H41V505H242Z" horiz-adv-x="575" unicode="†"/>
			<glyph d="M242 708H332V520H526V441H332V141H526V63H332V-126H242V63H48V141H242V441H48V520H242Z" horiz-adv-x="575" unicode="‡"/>
			<glyph d="M250 531Q298 531 338 507T403 442T427 354Q427 306 403 265T338 201T250 177Q202 177 161 201T97 265T73 354Q73 402 97 442T161 507T250 531Z" horiz-adv-x="500" unicode="•"/>
			<glyph d="M167 148Q200 148 223 126T247 72Q247 40 223 17T167 -6Q135 -6 111 16T87 70Q87 102 110 125T167 148ZM500 148Q533 148 556 126T580 72Q580 40 556 17T500 -6Q468 -6 444 16T420 70Q420 102 443 125T500 148ZM833 148Q866 148 889 126T913 72Q913 40 889 17T833 -6Q801 -6 777 16T753 70Q753 102 776 125T833 148Z" horiz-adv-x="1000" unicode="…"/>
			<glyph d="M404 726Q448 726 489 717T558 693L527 613Q477 642 399 642Q325 642 269 598T194 478H488L465 407H180Q176 384 176 350Q176 323 179 300H435L412 229H190Q204 157 261 112T398 67Q476 67 532 103L567 27Q535 6 490 -6T392 -18Q310 -18 247 15T146 105T94 229H14L38 300H85Q83 328 83 350Q83 385 86 407H16L41 478H97Q125 593 207 659T404 726Z" unicode="€"/>
			<glyph d="M56 708H393V636H266V296H185V636H56ZM476 708H594L707 416L820 708H937V296H855V603H853L734 296H679L559 603H557V296H476Z" horiz-adv-x="1000" unicode="™"/>
			<glyph d="M255 747H337L511 356L337 -35H255L82 356ZM296 661L169 356L296 51L424 356Z" horiz-adv-x="593" unicode="◊"/>
			<glyph d="M277 768Q311 768 336 761L325 680Q301 687 278 687Q231 687 212 656T194 573V474H304V397H194V0H100V397H6V474H100V573Q100 662 143 715T277 768ZM444 706Q470 706 488 688T507 645Q507 620 488 602T444 585Q418 585 400 602T382 645Q382 670 400 688T444 706ZM397 474H491V0H397Z" horiz-adv-x="574" unicode="ﬁ"/>
			<glyph d="M277 768Q311 768 336 761L325 680Q301 687 278 687Q231 687 212 656T194 573V474H304V397H194V0H100V397H6V474H100V573Q100 662 143 715T277 768ZM397 756H491V0H397Z" horiz-adv-x="574" unicode="ﬂ"/>
		</font>
</defs>
</svg>
