<?xml version="1.0" encoding="UTF-8"?>
<svg height="100%" width="100%" xmlns="http://www.w3.org/2000/svg">
	<defs>
		<font horiz-adv-x="580" id="web">
			<font-face alphabetic="0" ascent="756" descent="-244" font-family="" panose-1="2 11 5 3 2 2 2 2 2 4"/>
			<missing-glyph d="M0 718H512V0H0ZM50 667V50H462V667ZM259 609Q313 609 348 573T383 478Q383 444 370 418T320 358Q283 325 277 306T271 234H225L223 251Q223 307 236 332Q251 360 282 391Q313 420 322 437T332 474Q332 510 309 534T256 559Q223 559 201 536T174 464L124 472Q131 541 167 575T259 609ZM222 184H278V117H222Z" horiz-adv-x="512"/>
			<glyph d="" horiz-adv-x="250" unicode=" "/>
			<glyph d="M128 708H200V192H128ZM164 102Q187 102 202 86T218 48Q218 26 202 10T164 -6Q141 -6 125 10T110 48Q110 70 125 86T164 102Z" horiz-adv-x="328" unicode="!"/>
			<glyph d="M100 708H160V473H100ZM245 708H305V473H245Z" horiz-adv-x="405" unicode="&quot;"/>
			<glyph d="M205 708H266L237 496H370L399 708H460L431 496H521V436H422L400 274H495V214H392L362 0H301L331 214H198L168 0H107L137 214H35V274H145L167 436H59V496H176ZM228 436L206 274H339L361 436Z" horiz-adv-x="556" unicode="#"/>
			<glyph d="M263 792H311V720Q362 718 413 697T496 639L441 597Q419 629 384 646T311 664V389Q372 368 415 343T486 278T514 177Q514 123 487 80T414 13T311 -12V-84H263V-12Q198 -11 144 17T52 94L109 134Q134 93 180 70T263 46V333Q177 360 123 404T70 530Q70 586 96 628T166 693T263 720ZM263 664Q210 662 174 626T139 536Q139 440 263 406ZM311 321V46Q363 48 402 81T442 182Q442 231 406 266T311 321Z" unicode="$"/>
			<glyph d="M616 739L667 712L217 -31L165 -4ZM214 720Q263 720 303 696T366 633T390 545Q390 497 366 457T303 393T214 370Q165 370 125 393T61 457T38 545Q38 593 61 633T125 696T214 720ZM214 660Q166 660 132 627T98 545Q98 496 132 463T214 430Q262 430 296 463T330 545Q330 594 296 627T214 660ZM619 338Q668 338 708 314T771 251T795 163Q795 115 771 75T708 11T619 -12Q570 -12 530 11T466 75T443 163Q443 211 466 251T530 314T619 338ZM619 278Q571 278 537 245T503 163Q503 114 537 81T619 48Q667 48 701 81T735 163Q735 212 701 245T619 278Z" horiz-adv-x="833" unicode="%"/>
			<glyph d="M303 726Q376 726 425 683T474 567Q474 504 430 460T315 381L480 211L578 383H659L529 164L688 0H588L488 105Q444 44 392 16T270 -12Q208 -12 158 11T78 78T49 184Q49 259 92 309T213 394Q174 434 150 474T127 559Q127 610 150 648T214 706T303 726ZM304 667Q257 667 227 637T197 558Q197 524 222 484T274 424Q333 451 368 484T404 567Q404 610 375 638T304 667ZM253 348Q188 319 155 279T123 183Q123 124 166 86T271 48Q327 48 366 73T440 152Z" horiz-adv-x="704" unicode="&amp;"/>
			<glyph d="M100 708H160V473H100Z" horiz-adv-x="260" unicode="'"/>
			<glyph d="M178 735L230 702Q170 618 134 509T98 288Q98 176 134 67T230 -126L178 -159Q112 -72 72 46T32 288Q32 412 72 530T178 735Z" horiz-adv-x="300" unicode="("/>
			<glyph d="M122 735Q188 648 228 530T268 288Q268 164 228 46T122 -159L70 -126Q130 -42 166 67T202 288Q202 400 166 509T70 702Z" horiz-adv-x="300" unicode=")"/>
			<glyph d="M192 708H252V565L392 610L413 554L272 509L362 388L314 352L222 476L130 352L82 388L172 509L31 554L52 610L192 565Z" horiz-adv-x="444" unicode="*"/>
			<glyph d="M303 558H363V333H588V273H363V48H303V273H78V333H303Z" horiz-adv-x="666" unicode="+"/>
			<glyph d="M112 95H183L102 -140H45Z" horiz-adv-x="260" unicode=","/>
			<glyph d="M48 271H272V214H48Z" horiz-adv-x="320" unicode="-"/>
			<glyph d="M130 102Q153 102 168 86T184 48Q184 26 168 10T130 -6Q107 -6 91 10T76 48Q76 70 91 86T130 102Z" horiz-adv-x="260" unicode="."/>
			<glyph d="M308 726L365 706L63 -18L5 1Z" horiz-adv-x="370" unicode="/"/>
			<glyph d="M290 726Q402 726 462 627T522 353Q522 190 465 86T290 -18Q174 -18 116 83T58 353Q58 525 117 625T290 726ZM290 665Q214 665 172 582T131 353Q131 209 172 126T290 44Q365 44 407 125T449 353Q449 500 407 582T290 665Z" unicode="0"/>
			<glyph d="M294 708H358V0H286V619L158 510L114 560Z" unicode="1"/>
			<glyph d="M286 726Q344 726 392 703T470 637T499 531Q499 469 470 421T384 317L129 64H504V0H51V75L341 368Q380 408 403 447T426 530Q426 590 385 627T286 665Q230 665 191 630T140 539L69 553Q84 629 144 677T286 726Z" unicode="2"/>
			<glyph d="M274 726Q331 726 378 703T453 638T481 536Q481 475 446 432T358 374V372Q421 359 461 312T501 196Q501 131 470 82T387 8T273 -18Q196 -18 137 19T49 127L117 152Q135 102 177 73T273 44Q314 44 350 62T407 115T429 196Q429 271 376 305T245 340H214V402H245Q319 402 364 433T410 532Q410 590 369 627T270 665Q226 665 191 643T135 582L74 614Q106 670 157 698T274 726Z" unicode="3"/>
			<glyph d="M342 708H436V234H540V171H436V0H366V171H42V241ZM364 627L117 234H366V627Z" unicode="4"/>
			<glyph d="M114 708H475V644H180L175 425Q219 441 273 441Q339 441 391 413T473 334T503 219Q503 151 473 97T390 12T268 -18Q194 -18 140 16T56 111L121 140Q140 96 179 70T264 44Q311 44 349 66T408 126T430 212Q430 289 380 335T254 382Q180 382 107 343Z" unicode="5"/>
			<glyph d="M317 708H400L201 399L203 397Q218 409 247 416T304 423Q365 423 414 395T492 318T520 205Q520 140 490 89T408 10T290 -18Q224 -18 171 10T89 89T60 205Q60 255 77 301T124 397ZM290 365Q218 365 175 320T132 205Q132 159 152 122T208 64T290 43Q336 43 372 64T428 122T448 205Q448 275 405 320T290 365Z" unicode="6"/>
			<glyph d="M78 708H498V642L213 0H132L425 644H78Z" unicode="7"/>
			<glyph d="M290 726Q344 726 390 702T463 636T490 537Q490 482 460 437T383 377V375Q442 358 479 307T517 186Q517 126 486 79T403 7T290 -18Q229 -18 177 7T94 79T63 186Q63 256 100 306T197 375V377Q150 393 120 437T90 537Q90 593 117 636T190 702T290 726ZM290 665Q234 665 197 627T160 533Q160 478 197 442T290 406Q345 406 382 442T420 533Q420 590 383 627T290 665ZM290 342Q221 342 178 300T135 194Q135 129 178 86T290 43Q359 43 402 86T445 194Q445 258 402 300T290 342Z" unicode="8"/>
			<glyph d="M292 726Q358 726 410 697T492 618T522 503Q522 453 505 406T458 311L265 0H182L381 309L379 311Q364 299 335 292T278 285Q217 285 167 312T90 390T62 503Q62 568 91 618T173 697T292 726ZM292 665Q246 665 210 644T154 586T134 503Q134 433 177 388T292 343Q364 343 407 388T450 503Q450 549 430 586T374 644T292 665Z" unicode="9"/>
			<glyph d="M150 474Q173 474 188 458T204 420Q204 398 188 382T150 366Q127 366 111 382T96 420Q96 442 111 458T150 474ZM150 102Q173 102 188 86T204 48Q204 26 188 10T150 -6Q127 -6 111 10T96 48Q96 70 111 86T150 102Z" horiz-adv-x="300" unicode=":"/>
			<glyph d="M150 474Q173 474 188 458T204 420Q204 398 188 382T150 366Q127 366 111 382T96 420Q96 442 111 458T150 474ZM125 95H199L118 -140H58Z" horiz-adv-x="300" unicode=";"/>
			<glyph d="M588 564V504L159 303L588 102V42L78 280V326Z" horiz-adv-x="666" unicode="&lt;"/>
			<glyph d="M78 408H588V348H78ZM78 258H588V198H78Z" horiz-adv-x="666" unicode="="/>
			<glyph d="M78 564L588 326V280L78 42V102L507 303L78 504Z" horiz-adv-x="666" unicode="&gt;"/>
			<glyph d="M248 720Q302 720 346 699T416 638T442 544Q442 503 430 474T400 425T350 379Q319 353 303 336T281 296T274 238V192H204V252Q204 303 224 336T284 404L312 429Q340 452 355 478T370 540Q370 595 334 626T245 658Q193 658 158 625T116 541L48 553Q63 630 117 675T248 720ZM246 102Q269 102 284 86T300 48Q300 26 284 10T246 -6Q223 -6 207 10T192 48Q192 70 207 86T246 102Z" horiz-adv-x="482" unicode="?"/>
			<glyph d="M417 726Q511 726 592 689T722 580T771 405Q771 327 744 272T674 188T577 160Q535 160 512 181T490 233H486Q474 207 440 183T361 160Q294 160 255 206T216 325Q216 382 240 434T310 517T415 549Q452 549 480 532T519 489H523L533 534H595L555 348Q551 331 547 306T544 268Q544 246 554 232T593 218Q642 218 673 269T704 398Q704 482 667 542T565 633T416 664Q326 664 256 623T148 510T110 350Q110 257 149 187T260 79T424 42Q510 42 575 68T694 147L731 101Q673 42 593 12T417 -18Q304 -18 217 29T83 161T35 353Q35 457 86 542T225 677T417 726ZM412 489Q374 489 346 464T303 400T289 321Q289 283 307 250T369 218Q412 218 440 244T482 310T495 386Q495 430 476 459T412 489Z" horiz-adv-x="800" unicode="@"/>
			<glyph d="M316 708H386L690 0H610L532 186H166L89 0H10ZM349 628L193 252H505Z" horiz-adv-x="700" unicode="A"/>
			<glyph d="M94 708H305Q401 708 467 666T533 527Q533 471 498 429T408 375V373Q479 365 523 318T568 196Q568 137 536 93T444 24T304 0H94ZM166 646V398H311Q372 398 416 428T461 522Q461 586 414 616T291 646ZM166 339V62H300Q385 62 440 96T495 200Q495 269 448 304T313 339Z" horiz-adv-x="636" unicode="B"/>
			<glyph d="M425 726Q503 726 571 695T677 614L617 570Q592 608 540 635T426 663Q337 663 270 621T168 508T132 354Q132 271 168 200T271 87T426 45Q490 45 544 71T634 150L690 114Q652 56 583 19T425 -18Q319 -18 235 30T103 163T56 354Q56 460 104 545T236 678T425 726Z" horiz-adv-x="720" unicode="C"/>
			<glyph d="M94 708H329Q421 708 507 667T647 546T701 354Q701 242 647 161T507 40T329 0H94ZM166 644V64H309Q411 64 482 105T589 212T625 354Q625 430 589 496T482 603T309 644Z" horiz-adv-x="757" unicode="D"/>
			<glyph d="M94 708H533V644H166V400H509V337H166V64H545V0H94Z" horiz-adv-x="592" unicode="E"/>
			<glyph d="M94 708H521V644H166V398H496V335H166V0H94Z" horiz-adv-x="562" unicode="F"/>
			<glyph d="M425 726Q584 726 681 631L631 581Q554 663 426 663Q338 663 271 621T168 508T132 354Q132 271 168 200T271 88T426 46Q484 46 534 58T617 92V307H452V370H689V51Q574 -18 425 -18Q319 -18 235 30T103 163T56 354Q56 460 104 545T236 678T425 726Z" horiz-adv-x="779" unicode="G"/>
			<glyph d="M94 708H166V401H552V708H624V0H552V335H166V0H94Z" horiz-adv-x="718" unicode="H"/>
			<glyph d="M94 708H166V0H94Z" horiz-adv-x="260" unicode="I"/>
			<glyph d="M332 708H404V204Q404 106 356 44T215 -18Q140 -18 89 22T25 126L92 144Q101 101 131 73T207 45Q332 45 332 209Z" horiz-adv-x="492" unicode="J"/>
			<glyph d="M94 708H166V390H167L504 708H607L250 387L627 0H521L167 377H166V0H94Z" horiz-adv-x="628" unicode="K"/>
			<glyph d="M94 708H166V64H496V0H94Z" horiz-adv-x="510" unicode="L"/>
			<glyph d="M94 708H204L444 122H445L682 708H792V0H720V615H718L462 0H424L168 615H166V0H94Z" horiz-adv-x="886" unicode="M"/>
			<glyph d="M94 708H184L596 105H598V708H670V0H580L168 609H166V0H94Z" horiz-adv-x="764" unicode="N"/>
			<glyph d="M425 726Q529 726 613 678T746 545T794 354Q794 248 746 163T613 30T425 -18Q321 -18 236 30T104 163T56 354Q56 460 104 545T236 678T425 726ZM425 663Q337 663 270 621T168 508T132 354Q132 271 168 200T270 88T425 46Q513 46 579 88T682 200T718 354Q718 437 682 508T579 621T425 663Z" horiz-adv-x="850" unicode="O"/>
			<glyph d="M94 708H294Q405 708 469 660T533 519Q533 426 468 377T292 329H166V0H94ZM166 646V390H288Q372 390 416 423T461 519Q461 583 416 614T288 646Z" unicode="P"/>
			<glyph d="M414 726Q515 726 596 679T724 549T771 363Q771 268 728 190T605 66V64H819V0H414Q313 0 231 47T102 177T56 363Q56 466 102 549T231 679T414 726ZM414 663Q329 663 265 622T166 512T132 363Q132 283 166 214T265 104T414 63Q498 63 562 104T662 214T697 363Q697 443 662 512T562 622T414 663Z" horiz-adv-x="843" unicode="Q"/>
			<glyph d="M94 708H302Q414 708 479 662T544 519Q544 442 493 394T363 337L570 0H482L286 331H166V0H94ZM166 646V393H291Q378 393 425 425T472 519Q472 646 294 646Z" horiz-adv-x="599" unicode="R"/>
			<glyph d="M294 726Q361 726 414 701T494 640L437 594Q414 627 377 646T291 665Q254 665 219 650T162 605T140 532Q140 490 160 464T210 424T294 393Q365 370 405 350T474 291T504 186Q504 119 471 73T385 4T273 -18Q206 -18 146 9T50 87L112 133Q137 93 179 68T274 44Q312 44 348 60T408 107T431 181Q431 227 408 255T351 299T258 333Q201 351 160 372T94 432T68 531Q68 596 101 640T186 705T294 726Z" horiz-adv-x="564" unicode="S"/>
			<glyph d="M12 708H558V644H321V0H249V644H12Z" horiz-adv-x="570" unicode="T"/>
			<glyph d="M90 708H162V272Q162 176 208 111T355 46Q455 46 501 111T548 272V708H620V264Q620 196 596 132T513 25T355 -18Q256 -18 197 25T114 132T90 264Z" horiz-adv-x="710" unicode="U"/>
			<glyph d="M3 708H81L311 93H313L543 708H620L349 0H273Z" horiz-adv-x="623" unicode="V"/>
			<glyph d="M14 708H90L265 99H267L444 708H530L707 99H709L882 708H958L749 0H665L487 608H485L307 0H223Z" horiz-adv-x="972" unicode="W"/>
			<glyph d="M42 708H132L326 422L519 708H605L370 371L630 0H540L324 319L109 0H19L279 372Z" horiz-adv-x="649" unicode="X"/>
			<glyph d="M0 708H90L303 365L518 708H602L337 305V0H265V305Z" horiz-adv-x="602" unicode="Y"/>
			<glyph d="M42 708H535V648L122 64H541V0H31V60L445 644H42Z" horiz-adv-x="572" unicode="Z"/>
			<glyph d="M58 732H220V678H124V-102H220V-156H58Z" horiz-adv-x="300" unicode="["/>
			<glyph d="M62 726L365 1L307 -18L5 706Z" horiz-adv-x="370" unicode="\"/>
			<glyph d="M80 732H242V-156H80V-102H176V678H80Z" horiz-adv-x="300" unicode="]"/>
			<glyph d="M309 708H357L586 275H524L333 636L142 275H80Z" horiz-adv-x="666" unicode="^"/>
			<glyph d="M0 -75H500V-125H0Z" horiz-adv-x="500" unicode="_"/>
			<glyph d="M267 480Q347 480 398 436T449 310V105Q449 42 457 0H396Q389 40 389 76H387Q355 30 314 9T217 -12Q178 -12 141 2T79 49T55 130Q55 195 96 229T205 275T385 287V302Q385 362 353 392T260 423Q220 423 183 408T121 368L83 413Q113 443 161 461T267 480ZM365 234Q245 234 185 210T125 133Q125 87 157 65T235 44Q304 44 344 89T385 199V234Z" horiz-adv-x="534" unicode="a"/>
			<glyph d="M92 756H160V387H162Q191 431 239 455T339 480Q410 480 465 447T551 359T581 234Q581 165 551 109T465 20T339 -12Q287 -12 239 12T162 79H160V0H92ZM332 423Q280 423 239 398T175 330T152 234Q152 181 175 138T239 70T332 46Q387 46 427 71T488 138T509 234Q509 287 488 330T427 398T332 423Z" horiz-adv-x="637" unicode="b"/>
			<glyph d="M306 480Q356 480 403 459T480 399L427 361Q410 388 377 405T307 423Q254 423 213 398T150 330T128 234Q128 181 150 138T212 70T306 46Q387 46 433 107L484 69Q418 -12 306 -12Q232 -12 175 20T87 108T56 234Q56 304 87 360T175 448T306 480Z" horiz-adv-x="500" unicode="c"/>
			<glyph d="M477 756H545V0H477V79H475Q446 36 398 12T298 -12Q227 -12 171 20T86 109T56 234Q56 303 86 359T171 447T298 480Q350 480 398 455T475 387H477ZM305 423Q250 423 210 398T149 330T128 234Q128 181 149 138T210 71T305 46Q357 46 398 70T462 138T485 234Q485 287 462 330T398 398T305 423Z" horiz-adv-x="637" unicode="d"/>
			<glyph d="M292 480Q363 480 413 449T490 366T516 248Q516 228 515 216H127Q128 169 150 130T212 69T298 46Q347 46 387 69T448 127L499 87Q421 -12 298 -12Q229 -12 174 20T87 108T56 234Q56 303 87 359T172 448T292 480ZM292 423Q248 423 211 402T153 345T128 270H447Q444 338 403 380T292 423Z" horiz-adv-x="572" unicode="e"/>
			<glyph d="M269 768Q301 768 325 761L313 701Q289 708 266 708Q215 708 196 677T178 588V468H288V411H178V0H110V411H12V468H110V596Q110 677 150 722T269 768Z" horiz-adv-x="295" unicode="f"/>
			<glyph d="M298 480Q351 480 399 455T475 387H477V468H545V4Q545 -56 523 -110T444 -202T291 -240Q227 -240 167 -215T66 -146L115 -94Q144 -131 193 -155T294 -180Q389 -180 433 -129T477 4V92H475Q449 50 399 25T298 0Q226 0 171 30T86 115T56 238Q56 305 86 360T172 447T298 480ZM305 423Q250 423 210 398T149 331T128 240Q128 190 149 148T210 82T305 58Q357 58 398 81T462 145T485 240Q485 289 461 331T397 398T305 423Z" horiz-adv-x="632" unicode="g"/>
			<glyph d="M92 756H160V391H162Q180 431 224 455T319 480Q406 480 451 428T497 287V0H429V259Q429 338 400 380T302 423Q264 423 232 402T180 341T160 240V0H92Z" horiz-adv-x="583" unicode="h"/>
			<glyph d="M125 696Q144 696 158 682T173 648Q173 628 158 614T125 600Q106 600 91 614T77 648Q77 668 91 682T125 696ZM91 468H159V0H91Z" horiz-adv-x="250" unicode="i"/>
			<glyph d="M126 696Q145 696 159 682T174 648Q174 628 159 614T126 600Q107 600 92 614T78 648Q78 668 92 682T126 696ZM92 468H160V-93Q160 -158 130 -199T27 -240Q-3 -240 -27 -233L-17 -176Q3 -182 26 -182Q66 -182 79 -157T92 -82Z" horiz-adv-x="251" unicode="j"/>
			<glyph d="M92 756H160V257H163L379 468H477L241 254L501 0H401L163 246H160V0H92Z" horiz-adv-x="510" unicode="k"/>
			<glyph d="M92 756H160V0H92Z" horiz-adv-x="252" unicode="l"/>
			<glyph d="M311 480Q356 480 395 457T455 381Q479 429 521 454T619 480Q706 480 751 428T797 287V0H729V259Q729 423 608 423Q540 423 507 372T475 249V0H407V273Q407 355 380 389T294 423Q260 423 228 402T177 340T158 240V0H90V365Q90 425 86 468H151Q155 418 155 388H157Q178 429 219 454T311 480Z" horiz-adv-x="883" unicode="m"/>
			<glyph d="M317 480Q404 480 449 428T495 287V0H427V259Q427 338 398 380T300 423Q262 423 230 402T178 341T158 240V0H90V365Q90 425 86 468H151Q155 418 155 388H157Q176 428 221 454T317 480Z" horiz-adv-x="581" unicode="n"/>
			<glyph d="M305 480Q377 480 434 448T523 360T555 234Q555 164 523 108T434 20T305 -12Q234 -12 177 20T88 108T56 234Q56 304 88 360T177 448T305 480ZM305 423Q252 423 212 398T150 330T128 234Q128 181 150 138T212 71T305 46Q358 46 398 71T461 138T483 234Q483 287 461 330T398 398T305 423Z" horiz-adv-x="611" unicode="o"/>
			<glyph d="M337 480Q408 480 463 447T549 359T579 234Q579 165 549 109T463 20T337 -12Q286 -12 238 12T161 79H158V-240H90V468H158V387H161Q189 431 237 455T337 480ZM330 423Q278 423 237 398T173 330T150 234Q150 181 173 138T237 70T330 46Q385 46 425 71T486 138T507 234Q507 287 486 330T425 398T330 423Z" horiz-adv-x="635" unicode="p"/>
			<glyph d="M298 480Q350 480 398 455T474 387H477V468H545V-240H477V79H474Q445 36 397 12T298 -12Q227 -12 171 20T86 109T56 234Q56 303 86 359T171 447T298 480ZM305 423Q250 423 210 398T149 330T128 234Q128 181 149 138T210 71T305 46Q357 46 398 70T462 138T485 234Q485 287 462 330T398 398T305 423Z" horiz-adv-x="635" unicode="q"/>
			<glyph d="M307 480Q334 480 352 475L343 411Q337 413 322 415T295 417Q236 417 197 372T158 240V0H90V365Q90 425 86 468H151Q155 418 155 388H157Q177 429 217 454T307 480Z" horiz-adv-x="360" unicode="r"/>
			<glyph d="M227 480Q277 480 323 457T391 396L339 357Q324 387 293 405T224 423Q183 423 154 404T125 350Q125 318 151 300T237 270Q320 253 359 220T399 133Q399 61 349 24T223 -12Q167 -12 118 11T38 79L92 119Q111 87 146 66T222 46Q270 46 301 65T332 128Q332 163 299 182T194 218Q133 230 96 259T60 345Q60 409 107 444T227 480Z" horiz-adv-x="444" unicode="s"/>
			<glyph d="M101 600H169V468H301V411H169V138Q169 89 187 70T239 52Q268 52 298 67L301 8Q264 -6 221 -6Q173 -6 137 22T101 119V411H4V468H101Z" horiz-adv-x="317" unicode="t"/>
			<glyph d="M86 468H154V209Q154 130 182 87T281 45Q319 45 351 65T403 127T423 228V468H491V103Q491 43 495 0H430Q426 50 426 80H424Q405 40 359 14T264 -12Q177 -12 131 40T86 181Z" horiz-adv-x="581" unicode="u"/>
			<glyph d="M16 468H92L244 72H246L399 468H472L282 0H207Z" horiz-adv-x="488" unicode="v"/>
			<glyph d="M26 468H99L212 88H214L340 468H406L534 88H536L648 468H720L572 0H498L373 379H371L248 0H174Z" horiz-adv-x="746" unicode="w"/>
			<glyph d="M27 468H114L242 290L370 468H452L282 245L468 0H380L241 195L98 0H16L200 242Z" horiz-adv-x="484" unicode="x"/>
			<glyph d="M16 468H92L251 73H253L398 468H472L239 -121Q216 -180 182 -210T92 -240Q61 -240 31 -234L38 -172Q62 -180 88 -180Q121 -180 141 -159T178 -97L216 1Z" horiz-adv-x="488" unicode="y"/>
			<glyph d="M45 468H401V420L121 59H411V0H31V48L310 411H45Z" horiz-adv-x="442" unicode="z"/>
			<glyph d="M187 732H250V678H202Q145 678 145 595V417Q145 373 129 345T92 304T56 289V287Q72 285 92 272T129 231T145 159V-19Q145 -102 202 -102H250V-156H187Q139 -156 109 -126T79 -31V147Q79 200 59 229T0 258V318Q39 318 59 347T79 429V607Q79 673 109 702T187 732Z" horiz-adv-x="300" unicode="{"/>
			<glyph d="M81 750H141V-250H81Z" horiz-adv-x="222" unicode="|"/>
			<glyph d="M50 732H113Q161 732 191 702T221 607V429Q221 376 241 347T300 318V258Q261 258 241 229T221 147V-31Q221 -97 191 -126T113 -156H50V-102H98Q155 -102 155 -19V159Q155 203 171 231T207 272T244 287V289Q228 291 207 304T171 345T155 417V595Q155 678 98 678H50Z" horiz-adv-x="300" unicode="}"/>
			<glyph d="" horiz-adv-x="250" unicode=" "/>
			<glyph d="M298 540H346V479Q392 477 433 456T507 399L453 358Q437 383 409 400T346 419V49Q381 51 409 68T453 110L507 69Q475 32 433 11T346 -11V-72H298V-9Q234 -2 186 31T113 116T88 234Q88 299 113 351T186 437T298 477ZM298 417Q234 406 197 355T160 234Q160 163 197 112T298 51Z" unicode="¢"/>
			<glyph d="M389 726Q435 726 475 711T544 666L497 615Q477 638 448 651T386 665Q317 665 283 614T249 482V395H417V335H249V60H511V0H75V60H177V335H81V395H177V488Q177 598 232 662T389 726Z" unicode="£"/>
			<glyph d="M308 726Q372 726 415 699T474 632L415 602Q405 628 377 647T307 666Q258 666 228 642T199 577Q199 535 224 512T297 469L384 428Q432 405 459 371T487 286Q487 239 462 204T398 155Q469 112 469 30Q469 -49 414 -91T281 -133Q212 -133 159 -104T83 -18L149 14Q165 -30 200 -51T281 -73Q326 -73 361 -50T397 25Q397 59 377 81T322 121L195 182Q150 204 125 234T100 316Q100 364 128 398T204 448Q172 467 149 494T127 568Q127 644 179 685T308 726ZM259 410Q225 406 197 383T170 320Q170 283 194 262T278 217L344 187Q373 194 395 217T417 276Q417 317 392 340T320 384Z" unicode="§"/>
			<glyph d="M401 730Q504 730 591 679T729 542T780 353Q780 250 729 164T591 28T401 -22Q298 -22 210 28T71 164T20 353Q20 456 71 542T210 679T401 730ZM401 674Q314 674 240 631T123 514T80 353Q80 266 123 193T240 77T401 34Q488 34 561 77T677 193T720 353Q720 440 677 514T561 631T401 674ZM410 584Q459 584 503 562T572 505L520 465Q505 489 475 506T412 524Q365 524 328 501T272 441T253 359Q253 314 272 276T327 215T410 193Q443 193 474 209T528 258L580 224Q554 184 510 158T410 133Q346 133 294 162T213 242T184 359Q184 423 213 474T294 555T410 584Z" horiz-adv-x="800" unicode="©"/>
			<glyph d="M300 720Q362 720 414 689T497 607T528 493Q528 431 497 379T414 298T300 268Q238 268 185 298T102 379T72 493Q72 555 102 607T185 689T300 720ZM300 685Q248 685 204 659T134 589T108 493Q108 441 134 397T204 327T300 301Q352 301 396 327T466 397T492 493Q492 545 466 589T396 659T300 685ZM211 622H301Q341 622 368 603T396 547Q396 520 380 502T337 478L406 366H350L290 473H257V366H211ZM257 583V510H294Q350 510 350 548Q350 567 335 575T299 583Z" horiz-adv-x="600" unicode="®"/>
			<glyph d="M200 720Q265 720 307 678T349 571Q349 507 307 464T200 422Q136 422 93 464T51 571Q51 636 93 678T200 720ZM200 672Q158 672 128 642T99 571Q99 529 128 499T200 470Q242 470 271 499T301 571Q301 613 271 642T200 672Z" horiz-adv-x="400" unicode="°"/>
			<glyph d="M276 708H513V-126H447V654H323V-126H257V316Q197 316 149 340T75 407T48 502Q48 599 109 653T276 708Z" horiz-adv-x="600" unicode="¶"/>
			<glyph d="M130 368Q153 368 168 352T184 314Q184 292 168 276T130 260Q107 260 91 276T76 314Q76 336 91 352T130 368Z" horiz-adv-x="260" unicode="·"/>
			<glyph d="M30 271H370V214H30Z" horiz-adv-x="400" unicode="–"/>
			<glyph d="M30 271H570V214H30Z" horiz-adv-x="600" unicode="—"/>
			<glyph d="M123 708H180L113 473H42Z" horiz-adv-x="222" unicode="‘"/>
			<glyph d="M109 708H180L99 473H42Z" horiz-adv-x="222" unicode="’"/>
			<glyph d="M123 708H180L113 473H42ZM288 708H345L278 473H207Z" horiz-adv-x="387" unicode="“"/>
			<glyph d="M109 708H180L99 473H42ZM274 708H345L264 473H207Z" horiz-adv-x="387" unicode="”"/>
			<glyph d="M245 708H311V504H515V444H311V-126H245V444H41V504H245Z" horiz-adv-x="556" unicode="†"/>
			<glyph d="M245 708H311V516H506V456H311V126H506V66H311V-126H245V66H50V126H245V456H50V516H245Z" horiz-adv-x="556" unicode="‡"/>
			<glyph d="M250 531Q298 531 338 507T403 442T427 354Q427 306 403 265T338 201T250 177Q202 177 161 201T97 265T73 354Q73 402 97 442T161 507T250 531Z" horiz-adv-x="500" unicode="•"/>
			<glyph d="M167 102Q190 102 205 86T221 48Q221 26 205 10T167 -6Q144 -6 128 10T113 48Q113 70 128 86T167 102ZM500 102Q523 102 538 86T554 48Q554 26 538 10T500 -6Q477 -6 461 10T446 48Q446 70 461 86T500 102ZM833 102Q856 102 871 86T887 48Q887 26 871 10T833 -6Q810 -6 794 10T779 48Q779 70 794 86T833 102Z" horiz-adv-x="1000" unicode="…"/>
			<glyph d="M387 726Q428 726 468 717T536 694L511 633Q460 663 384 663Q299 663 241 611T163 469H463L445 414H154Q149 381 149 349Q149 324 153 292H409L391 237H160Q176 150 238 97T384 45Q463 45 520 85L549 29Q482 -18 375 -18Q298 -18 237 17T138 111T88 237H12L32 292H81Q78 331 78 348Q78 382 82 414H13L33 469H90Q117 590 197 658T387 726Z" unicode="€"/>
			<glyph d="M72 708H401V654H268V296H208V654H72ZM487 708H580L709 392L838 708H928V296H868V642H866L727 296H688L549 642H547V296H487Z" horiz-adv-x="1000" unicode="™"/>
			<glyph d="M264 747H327L498 356L327 -35H264L95 356ZM296 681L160 356L296 31L433 356Z" horiz-adv-x="593" unicode="◊"/>
			<glyph d="M269 768Q301 768 325 761L313 701Q289 708 266 708Q215 708 196 677T178 588V468H288V411H178V0H110V411H12V468H110V596Q110 677 150 722T269 768ZM419 696Q438 696 452 682T467 648Q467 628 452 614T419 600Q400 600 385 614T371 648Q371 668 385 682T419 696ZM384 468H452V0H384Z" horiz-adv-x="544" unicode="ﬁ"/>
			<glyph d="M269 768Q301 768 325 761L313 701Q289 708 266 708Q215 708 196 677T178 588V468H288V411H178V0H110V411H12V468H110V596Q110 677 150 722T269 768ZM384 756H452V0H384Z" horiz-adv-x="544" unicode="ﬂ"/>
		</font>
</defs>
</svg>
